  0
SECTION
  2
HEADER
  9
$ACADVER
  1
AC1014
  9
$ACADMAINTVER
 70
     0
  9
$DWGCODEPAGE
  3
ANSI_1252
  9
$INSBASE
 10
0.0
 20
0.0
 30
0.0
  9
$EXTMIN
 10
0.0
 20
0.0
 30
0.0
  9
$EXTMAX
 10
420.0
 20
297.0
 30
0.0
  9
$LIMMIN
 10
0.0
 20
0.0
  9
$LIMMAX
 10
12.0
 20
9.0
  9
$ORTHOMODE
 70
     0
  9
$REGENMODE
 70
     1
  9
$FILLMODE
 70
     0
  9
$QTEXTMODE
 70
     0
  9
$MIRRTEXT
 70
     1
  9
$DRAGMODE
 70
     2
  9
$LTSCALE
 40
1.0
  9
$OSMODE
 70
     0
  9
$ATTMODE
 70
     1
  9
$TEXTSIZE
 40
0.2
  9
$TRACEWID
 40
0.05
  9
$TEXTSTYLE
  7
STANDARD
  9
$CLAYER
  8
0
  9
$CELTYPE
  6
BYLAYER
  9
$CECOLOR
 62
   256
  9
$CELTSCALE
 40
1.0
  9
$DELOBJ
 70
     1
  9
$DISPSILH
 70
     0
  9
$DIMSCALE
 40
1.0
  9
$DIMASZ
 40
0.18
  9
$DIMEXO
 40
0.0625
  9
$DIMDLI
 40
0.38
  9
$DIMRND
 40
0.0
  9
$DIMDLE
 40
0.0
  9
$DIMEXE
 40
0.18
  9
$DIMTP
 40
0.0
  9
$DIMTM
 40
0.0
  9
$DIMTXT
 40
0.18
  9
$DIMCEN
 40
0.09
  9
$DIMTSZ
 40
0.0
  9
$DIMTOL
 70
     0
  9
$DIMLIM
 70
     0
  9
$DIMTIH
 70
     0
  9
$DIMTOH
 70
     0
  9
$DIMSE1
 70
     0
  9
$DIMSE2
 70
     0
  9
$DIMTAD
 70
     1
  9
$DIMZIN
 70
     0
  9
$DIMBLK
  1

  9
$DIMASO
 70
     1
  9
$DIMSHO
 70
     1
  9
$DIMPOST
  1

  9
$DIMAPOST
  1

  9
$DIMALT
 70
     0
  9
$DIMALTD
 70
     2
  9
$DIMALTF
 40
25.4
  9
$DIMLFAC
 40
1.0
  9
$DIMTOFL
 70
     0
  9
$DIMTVP
 40
0.0
  9
$DIMTIX
 70
     0
  9
$DIMSOXD
 70
     0
  9
$DIMSAH
 70
     0
  9
$DIMBLK1
  1

  9
$DIMBLK2
  1

  9
$DIMSTYLE
  2
STANDARD
  9
$DIMCLRD
 70
     0
  9
$DIMCLRE
 70
     0
  9
$DIMCLRT
 70
     0
  9
$DIMTFAC
 40
1.0
  9
$DIMGAP
 40
0.09
  9
$DIMJUST
 70
     0
  9
$DIMSD1
 70
     0
  9
$DIMSD2
 70
     0
  9
$DIMTOLJ
 70
     1
  9
$DIMTZIN
 70
     0
  9
$DIMALTZ
 70
     0
  9
$DIMALTTZ
 70
     0
  9
$DIMFIT
 70
     3
  9
$DIMUPT
 70
     0
  9
$DIMUNIT
 70
     2
  9
$DIMDEC
 70
     2
  9
$DIMTDEC
 70
     4
  9
$DIMALTU
 70
     2
  9
$DIMALTTD
 70
     2
  9
$DIMTXSTY
  7
STANDARD
  9
$DIMAUNIT
 70
     0
  9
$LUNITS
 70
     2
  9
$LUPREC
 70
     4
  9
$SKETCHINC
 40
0.1
  9
$FILLETRAD
 40
0.5
  9
$AUNITS
 70
     0
  9
$AUPREC
 70
     0
  9
$MENU
  1
.
  9
$ELEVATION
 40
0.0
  9
$PELEVATION
 40
0.0
  9
$THICKNESS
 40
0.0
  9
$LIMCHECK
 70
     0
  9
$BLIPMODE
 70
     0
  9
$CHAMFERA
 40
0.5
  9
$CHAMFERB
 40
0.5
  9
$CHAMFERC
 40
1.0
  9
$CHAMFERD
 40
0.0
  9
$SKPOLY
 70
     0
  9
$TDCREATE
 40
2450772.666465926
  9
$TDUPDATE
 40
2458173.700023148
  9
$TDINDWG
 40
0.0011564931
  9
$TDUSRTIMER
 40
0.0000000000
  9
$USRTIMER
 70
     1
  9
$ANGBASE
 50
0.0
  9
$ANGDIR
 70
     0
  9
$PDMODE
 70
     0
  9
$PDSIZE
 40
0.0
  9
$PLINEWID
 40
0.0
  9
$COORDS
 70
     1
  9
$SPLFRAME
 70
     0
  9
$SPLINETYPE
 70
     6
  9
$SPLINESEGS
 70
     8
  9
$ATTDIA
 70
     0
  9
$ATTREQ
 70
     1
  9
$HANDLING
 70
     1
  9
$HANDSEED
  5
18D
  9
$SURFTAB1
 70
     6
  9
$SURFTAB2
 70
     6
  9
$SURFTYPE
 70
     6
  9
$SURFU
 70
     6
  9
$SURFV
 70
     6
  9
$UCSNAME
  2

  9
$UCSORG
 10
0.0
 20
0.0
 30
0.0
  9
$UCSXDIR
 10
1.0
 20
0.0
 30
0.0
  9
$UCSYDIR
 10
0.0
 20
1.0
 30
0.0
  9
$PUCSNAME
  2

  9
$PUCSORG
 10
0.0
 20
0.0
 30
0.0
  9
$PUCSXDIR
 10
1.0
 20
0.0
 30
0.0
  9
$PUCSYDIR
 10
0.0
 20
1.0
 30
0.0
  9
$USERI1
 70
     0
  9
$USERI2
 70
     0
  9
$USERI3
 70
     0
  9
$USERI4
 70
     0
  9
$USERI5
 70
     0
  9
$USERR1
 40
0.0
  9
$USERR2
 40
0.0
  9
$USERR3
 40
0.0
  9
$USERR4
 40
0.0
  9
$USERR5
 40
0.0
  9
$WORLDVIEW
 70
     1
  9
$SHADEDGE
 70
     3
  9
$SHADEDIF
 70
    70
  9
$TILEMODE
 70
     1
  9
$MAXACTVP
 70
    48
  9
$PINSBASE
 10
0.0
 20
0.0
 30
0.0
  9
$PLIMCHECK
 70
     0
  9
$PEXTMIN
 10
0.0
 20
0.0
 30
0.0
  9
$PEXTMAX
 10
0.0
 20
0.0
 30
0.0
  9
$PLIMMIN
 10
0.0
 20
0.0
  9
$PLIMMAX
 10
12.0
 20
9.0
  9
$UNITMODE
 70
     0
  9
$VISRETAIN
 70
     1
  9
$PLINEGEN
 70
     0
  9
$PSLTSCALE
 70
     1
  9
$TREEDEPTH
 70
  3020
  9
$PICKSTYLE
 70
     1
  9
$CMLSTYLE
  2
STANDARD
  9
$CMLJUST
 70
     0
  9
$CMLSCALE
 40
1.0
  9
$PROXYGRAPHICS
 70
     1
  9
$MEASUREMENT
 70
     0
  0
ENDSEC
  0
SECTION
  2
CLASSES
  0
CLASS
  1
LWPOLYLINE
  2
AcDbPolyline
  3
"AutoCAD"
 90
        0
280
     0
281
     1
  0
CLASS
  1
IMAGE
  2
AcDbRasterImage
  3
ISM
 90
      127
280
     0
281
     1
  0
CLASS
  1
OLE2FRAME
  2
AcDbOle2Frame
  3
""
 90
        0
280
     0
281
     1
  0
CLASS
  1
HATCH
  2
AcDbHatch
  3
"ACAD_SEDONA"
 90
        0
280
     0
281
     1
  0
CLASS
  1
DICTIONARYVAR
  2
AcDbDictionaryVar
  3
"AutoCAD"
 90
        0
280
     0
281
     0
  0
CLASS
  1
RASTERVARIABLES
  2
AcDbRasterVariables
  3
ISM
 90
        0
280
     0
281
     0
  0
CLASS
  1
IMAGEDEF
  2
AcDbRasterImageDef
  3
ISM
 90
        0
280
     0
281
     0
  0
CLASS
  1
IMAGEDEF_REACTOR
  2
AcDbRasterImageDefReactor
  3
ISM
 90
        1
280
     0
281
     0
  0
CLASS
  1
IDBUFFER
  2
AcDbIdBuffer
  3
"Acad"
 90
        0
280
     0
281
     0
  0
CLASS
  1
SPATIAL_FILTER
  2
AcDbSpatialFilter
  3
"Acad"
 90
        0
280
     0
281
     0
  0
CLASS
  1
XRECORD
  2
AcDbXrecord
  3
"<Built In>"
 90
        0
280
     0
281
     0
  0
CLASS
  1
SORTENTSTABLE
  2
AcDbSortentsTable
  3
"AutoCAD"
 90
        0
280
     0
281
     0
  0
CLASS
  1
LAYER_INDEX
  2
AcDbLayerIndex
  3
"Acad"
 90
        0
280
     0
281
     0
  0
CLASS
  1
SPATIAL_INDEX
  2
AcDbSpatialIndex
  3
"Acad"
 90
        0
280
     0
281
     0
  0
CLASS
  1
OBJECT_PTR
  2
CAseDLPNTableRecord
  3
"ASE-LPNTableRecord"
 90
        1
280
     0
281
     0
  0
CLASS
  1
LAYOUT
  2
AcDbLayout
  3
"AutoCAD 2000"
 90
        1
280
     0
281
     0
  0
CLASS
  1
PLOTSETTINGS
  2
AcDbPlotSettings
  3
"AutoCAD 2000"
 90
        1
280
     0
281
     0
  0
CLASS
  1
ACDBDICTIONARYWDFLT
  2
AcDbDictionaryWithDefault
  3
"AutoCAD 2000"
 90
        1
280
     0
281
     0
  0
CLASS
  1
ACDBPLACEHOLDER
  2
AcDbPlaceHolder
  3
"AutoCAD 2000"
 90
        1
280
     0
281
     0
  0
CLASS
  1
VBA_PROJECT
  2
AcDbVbaProject
  3
"acadvba"
 90
        1
280
     0
281
     0
  0
CLASS
  1
WIPEOUT
  2
AcDbWipeout
  3
WipeOut|AutoCAD Express Tool|expresstools@autodesk.com
 90
      127
280
     0
281
     1
  0
CLASS
  1
WIPEOUTVARIABLES
  2
AcDbWipeoutVariables
  3
WipeOut|AutoCAD Express Tool|expresstools@autodesk.com
 90
        0
280
     0
281
     0
  0
CLASS
  1
RTEXT
  2
RText
  3
RText|AutoCAD Express Tool|expresstools@autodesk.com
 90
        0
280
     0
281
     1
  0
CLASS
  1
ARCALIGNEDTEXT
  2
AcDbArcAlignedText
  3
ATEXT|AutoCAD Express Tool|expresstools@autodesk.com
 90
        0
280
     0
281
     1
  0
ENDSEC
  0
SECTION
  2
TABLES
  0
TABLE
  2
VPORT
  5
8
100
AcDbSymbolTable
 70
     1
  0
VPORT
  5
25
100
AcDbSymbolTableRecord
100
AcDbViewportTableRecord
  2
*ACTIVE
 70
     0
 10
0.0
 20
0.0
 11
1.0
 21
1.0
 12
210.0
 22
148.5
 13
0.0
 23
0.0
 14
0.5
 24
0.5
 15
0.5
 25
0.5
 16
0.0
 26
0.0
 36
1.0
 17
0.0
 27
0.0
 37
0.0
 40
297.0
 41
1.414141
 42
50.0
 43
0.0
 44
0.0
 50
0.0
 51
0.0
 71
     0
 72
   100
 73
     1
 74
     1
 75
     0
 76
     0
 77
     0
 78
     0
  0
ENDTAB
  0
TABLE
  2
LTYPE
  5
5
100
AcDbSymbolTable
 70
     3
  0
LTYPE
  5
12
100
AcDbSymbolTableRecord
100
AcDbLinetypeTableRecord
  2
BYBLOCK
 70
    64
  3

 72
    65
 73
     0
 40
0.0
  0
LTYPE
  5
13
100
AcDbSymbolTableRecord
100
AcDbLinetypeTableRecord
  2
BYLAYER
 70
    64
  3

 72
    65
 73
     0
 40
0.0
  0
LTYPE
  5
14
100
AcDbSymbolTableRecord
100
AcDbLinetypeTableRecord
  2
CONTINUOUS
 70
     0
  3
Solid line
 72
    65
 73
     0
 40
0.0
  0
ENDTAB
  0
TABLE
  2
LAYER
  5
2
100
AcDbSymbolTable
 70
     1
  0
LAYER
  5
E
100
AcDbSymbolTableRecord
100
AcDbLayerTableRecord
  2
0
 70
     0
 62
     7
  6
CONTINUOUS
  0
ENDTAB
  0
TABLE
  2
STYLE
  5
3
100
AcDbSymbolTable
 70
     1
  0
STYLE
  5
F
100
AcDbSymbolTableRecord
100
AcDbTextStyleTableRecord
  2
STANDARD
 70
     0
 40
0.0
 41
1.0
 50
0.0
 71
     0
 42
0.2
  3
txt.shx
  4

  0
ENDTAB
  0
TABLE
  2
VIEW
  5
6
100
AcDbSymbolTable
 70
     0
  0
ENDTAB
  0
TABLE
  2
UCS
  5
7
100
AcDbSymbolTable
 70
     0
  0
ENDTAB
  0
TABLE
  2
APPID
  5
9
100
AcDbSymbolTable
 70
     1
  0
APPID
  5
10
100
AcDbSymbolTableRecord
100
AcDbRegAppTableRecord
  2
ACAD
 70
     0
  0
ENDTAB
  0
TABLE
  2
DIMSTYLE
  5
A
100
AcDbSymbolTable
 70
     1
  0
DIMSTYLE
105
1D
100
AcDbSymbolTableRecord
100
AcDbDimStyleTableRecord
  2
STANDARD
 70
     0
  3

  4

  5

  6

  7

 40
1.0
 41
0.18
 42
0.0625
 43
0.38
 44
0.18
 45
0.0
 46
0.0
 47
0.0
 48
0.0
 71
     0
 72
     0
 73
     1
 74
     1
 75
     0
 76
     0
 77
     0
 78
     0
140
0.18
141
0.09
142
0.0
143
25.4
144
1.0
145
0.0
146
1.0
147
0.09
170
     0
171
     2
172
     0
173
     0
174
     0
175
     0
176
     0
177
     0
178
     0
270
     2
271
     4
272
     4
273
     2
274
     2
275
     0
280
     0
281
     0
282
     0
283
     1
284
     0
285
     0
286
     0
287
     3
288
     0
340
F
  0
ENDTAB
  0
TABLE
  2
BLOCK_RECORD
  5
1
100
AcDbSymbolTable
 70
     3
  0
BLOCK_RECORD
  5
18
100
AcDbSymbolTableRecord
100
AcDbBlockTableRecord
  2
*MODEL_SPACE
  0
BLOCK_RECORD
  5
15
100
AcDbSymbolTableRecord
100
AcDbBlockTableRecord
  2
*PAPER_SPACE
  0
BLOCK_RECORD
  5
17E
100
AcDbSymbolTableRecord
100
AcDbBlockTableRecord
  2
RECTANGLE
  0
BLOCK_RECORD
  5
183
100
AcDbSymbolTableRecord
100
AcDbBlockTableRecord
  2
CIRCLE
  0
BLOCK_RECORD
  5
188
100
AcDbSymbolTableRecord
100
AcDbBlockTableRecord
  2
ROUNDED_RECTANGLE
  0
ENDTAB
  0
ENDSEC
  0
SECTION
  2
BLOCKS
  0
BLOCK
  5
19
100
AcDbEntity
  8
0
100
AcDbBlockBegin
  2
*MODEL_SPACE
 70
     0
 10
0.0
 20
0.0
 30
0.0
  3
*MODEL_SPACE
  1

  0
ENDBLK
  5
1A
100
AcDbEntity
  8
0
100
AcDbBlockEnd
  0
BLOCK
  5
16
100
AcDbEntity
 67
     1
  8
0
100
AcDbBlockBegin
  2
*PAPER_SPACE
 70
     0
 10
0.0
 20
0.0
 30
0.0
  3
*PAPER_SPACE
  1

  0
ENDBLK
  5
17
100
AcDbEntity
 67
     1
  8
0
100
AcDbBlockEnd
  0
BLOCK
  5
17F
100
AcDbEntity
  8
0
100
AcDbBlockBegin
  2
RECTANGLE
 70
     0
 10
0.0
 20
0.0
 30
0.0
  3
RECTANGLE
  1

  0
LWPOLYLINE
  5
180
102
{ACAD_REACTORS
330
181
102
}
100
AcDbEntity
  8
0
  6
CONTINUOUS
 62
     7
100
AcDbPolyline
 90
        4
 70
     1
 10
30.0
 20
35.0
 10
70.0
 20
35.0
 10
70.0
 20
65.0
 10
30.0
 20
65.0
  0
HATCH
  5
181
100
AcDbEntity
  8
0
 62
   254
100
AcDbHatch
 10
0.0
 20
0.0
 30
0.0
210
0.0
220
0.0
230
1.0
  2
SOLID
 70
     1
 71
     1
 91
        1
 92
        3
 72
     0
 73
     1
 93
        4
 10
30.0
 20
35.0
 10
70.0
 20
35.0
 10
70.0
 20
65.000000000000014
 10
30.0
 20
65.000000000000014
 97
        1
330
180
 75
     0
 76
     1
 98
        0
  0
ENDBLK
  5
182
100
AcDbEntity
  8
0
100
AcDbBlockEnd
  0
BLOCK
  5
184
100
AcDbEntity
  8
0
100
AcDbBlockBegin
  2
CIRCLE
 70
     0
 10
0.0
 20
0.0
 30
0.0
  3
CIRCLE
  1

  0
LWPOLYLINE
  5
185
102
{ACAD_REACTORS
330
186
102
}
100
AcDbEntity
  8
0
  6
CONTINUOUS
 62
     7
100
AcDbPolyline
 90
        2
 70
     1
 10
30.0
 20
50.0
 42
-1.0
 10
70.0
 20
50.0
 42
-1.0
  0
HATCH
  5
186
100
AcDbEntity
  8
0
 62
   254
100
AcDbHatch
 10
0.0
 20
0.0
 30
0.0
210
0.0
220
0.0
230
1.0
  2
SOLID
 70
     1
 71
     1
 91
        1
 92
        3
 72
     1
 73
     1
 93
        2
 10
30.000000000000004
 20
50.0
 42
-0.9999999999999999
 10
70.0
 20
50.0
 42
-1.0000000000000071
 97
        1
330
185
 75
     0
 76
     1
 98
        0
  0
ENDBLK
  5
187
100
AcDbEntity
  8
0
100
AcDbBlockEnd
  0
BLOCK
  5
189
100
AcDbEntity
  8
0
100
AcDbBlockBegin
  2
ROUNDED_RECTANGLE
 70
     0
 10
0.0
 20
0.0
 30
0.0
  3
ROUNDED_RECTANGLE
  1

  0
LWPOLYLINE
  5
18A
102
{ACAD_REACTORS
330
18B
102
}
100
AcDbEntity
  8
0
  6
CONTINUOUS
 62
     7
100
AcDbPolyline
 90
        8
 70
     1
 10
65.0
 20
35.0
 42
0.414209
 10
70.0
 20
40.0
 10
70.0
 20
60.0
 42
0.414209
 10
65.0
 20
65.0
 10
35.0
 20
65.0
 42
0.414209
 10
30.0
 20
60.0
 10
30.0
 20
40.0
 42
0.414209
 10
35.0
 20
35.0
  0
HATCH
  5
18B
100
AcDbEntity
  8
0
 62
   254
100
AcDbHatch
 10
0.0
 20
0.0
 30
0.0
210
0.0
220
0.0
230
1.0
  2
SOLID
 70
     1
 71
     1
 91
        1
 92
        3
 72
     1
 73
     1
 93
        8
 10
65.000000093999986
 20
35.0
 42
0.4142090102834559
 10
70.0
 20
39.999999905999999
 42
0.0
 10
70.0
 20
60.000000093999994
 42
0.4142090102834552
 10
65.000000093999986
 20
65.000000000000014
 42
0.0
 10
34.999999905999999
 20
65.0
 42
0.414209010283455
 10
30.0
 20
60.000000094000001
 42
0.0
 10
30.0
 20
39.999999905999992
 42
0.4142090102834558
 10
34.999999905999999
 20
35.0
 42
0.0
 97
        1
330
18A
 75
     0
 76
     1
 98
        0
  0
ENDBLK
  5
18C
100
AcDbEntity
  8
0
100
AcDbBlockEnd
  0
ENDSEC
  0
SECTION
  2
ENTITIES
  0
LWPOLYLINE
  5
31
100
AcDbEntity
  8
0
  6
CONTINUOUS
 62
     7
100
AcDbPolyline
 90
        4
 70
     1
 10
252.0
 20
268.990667
 10
302.0
 20
268.990667
 10
302.0
 20
274.990667
 10
252.0
 20
274.990667
  0
LWPOLYLINE
  5
32
100
AcDbEntity
  8
0
  6
CONTINUOUS
 62
     7
100
AcDbPolyline
 90
        2
 70
     1
 10
216.5
 20
281.490667
 42
-1.0
 10
216.5
 20
284.490667
 42
-1.0
  0
LWPOLYLINE
  5
33
100
AcDbEntity
  8
0
  6
CONTINUOUS
 62
     7
100
AcDbPolyline
 90
        2
 70
     1
 10
216.75
 20
262.490667
 42
1.0
 10
216.75
 20
259.490667
 42
1.0
  0
LWPOLYLINE
  5
34
100
AcDbEntity
  8
0
  6
CONTINUOUS
 62
     7
100
AcDbPolyline
 90
        2
 70
     1
 10
299.0
 20
262.490667
 42
-1.0
 10
299.0
 20
259.490667
 42
-1.0
  0
LWPOLYLINE
  5
35
100
AcDbEntity
  8
0
  6
CONTINUOUS
 62
     7
100
AcDbPolyline
 90
        2
 70
     1
 10
299.0
 20
281.490667
 42
1.0
 10
299.0
 20
284.490667
 42
1.0
  0
LWPOLYLINE
  5
36
100
AcDbEntity
  8
0
  6
CONTINUOUS
 62
     7
100
AcDbPolyline
 90
        2
 70
     1
 10
256.75
 20
281.490667
 42
1.0
 10
256.75
 20
284.490667
 42
1.0
  0
LWPOLYLINE
  5
37
100
AcDbEntity
  8
0
  6
CONTINUOUS
 62
     7
100
AcDbPolyline
 90
        2
 70
     1
 10
256.5
 20
259.490667
 42
1.0
 10
256.5
 20
262.490667
 42
1.0
  0
ELLIPSE
  5
38
100
AcDbEntity
  8
0
  6
CONTINUOUS
 62
     7
100
AcDbEllipse
 10
214.375
 20
284.990667
 30
0.0
 11
-0.0000000000000078
 21
2.9999999999999893
 31
0.0
210
0.0
220
0.0
230
1.0
 40
0.900167
 41
0.0000000000000012
 42
1.5707963267949021
  0
ELLIPSE
  5
39
100
AcDbEntity
  8
0
  6
CONTINUOUS
 62
     7
100
AcDbEllipse
 10
214.5
 20
258.865667
 30
0.0
 11
-2.9999999999999889
 21
-0.0000000000000303
 31
0.0
210
0.0
220
0.0
230
1.0
 40
0.925
 41
0.0000000000000012
 42
1.5707963267949021
  0
ELLIPSE
  5
3A
100
AcDbEntity
  8
0
  6
CONTINUOUS
 62
     7
100
AcDbEllipse
 10
301.0
 20
258.865667
 30
0.0
 11
2.9999999999999893
 21
0.0000000000000299
 31
0.0
210
0.0
220
0.0
230
1.0
 40
0.925
 41
-1.5707963267949021
 42
-0.0000000000000012
  0
ELLIPSE
  5
3B
100
AcDbEntity
  8
0
  6
CONTINUOUS
 62
     7
100
AcDbEllipse
 10
300.999973
 20
285.225
 30
0.0
 11
2.9999999999999893
 21
0.0000000000000118
 31
0.0
210
0.0
220
0.0
230
1.0
 40
0.925
 41
0.0000000000000012
 42
1.5707963267949021
  0
LWPOLYLINE
  5
3C
100
AcDbEntity
  8
0
  6
CONTINUOUS
 62
     7
100
AcDbPolyline
 90
        4
 70
     1
 10
310.5
 20
238.5
 10
405.25
 20
238.5
 10
405.25
 20
248.5
 10
310.5
 20
248.5
  0
LWPOLYLINE
  5
3D
100
AcDbEntity
  8
0
  6
CONTINUOUS
 62
     7
100
AcDbPolyline
 90
        4
 70
     1
 10
310.5
 20
216.5
 10
405.25
 20
216.5
 10
405.25
 20
226.5
 10
310.5
 20
226.5
  0
LWPOLYLINE
  5
3E
100
AcDbEntity
  8
0
  6
CONTINUOUS
 62
     7
100
AcDbPolyline
 90
        2
 70
     1
 10
317.75
 20
242.0
 42
-1.0
 10
317.75
 20
245.0
 42
-1.0
  0
LWPOLYLINE
  5
3F
100
AcDbEntity
  8
0
  6
CONTINUOUS
 62
     7
100
AcDbPolyline
 90
        2
 70
     1
 10
318.0
 20
223.0
 42
1.0
 10
318.0
 20
220.0
 42
1.0
  0
LWPOLYLINE
  5
40
100
AcDbEntity
  8
0
  6
CONTINUOUS
 62
     7
100
AcDbPolyline
 90
        2
 70
     1
 10
400.25
 20
223.0
 42
-1.0
 10
400.25
 20
220.0
 42
-1.0
  0
LWPOLYLINE
  5
41
100
AcDbEntity
  8
0
  6
CONTINUOUS
 62
     7
100
AcDbPolyline
 90
        2
 70
     1
 10
400.25
 20
242.0
 42
1.0
 10
400.25
 20
245.0
 42
1.0
  0
LWPOLYLINE
  5
42
100
AcDbEntity
  8
0
  6
CONTINUOUS
 62
     7
100
AcDbPolyline
 90
        2
 70
     1
 10
358.0
 20
242.0
 42
1.0
 10
358.0
 20
245.0
 42
1.0
  0
LWPOLYLINE
  5
43
100
AcDbEntity
  8
0
  6
CONTINUOUS
 62
     7
100
AcDbPolyline
 90
        2
 70
     1
 10
357.75
 20
220.0
 42
1.0
 10
357.75
 20
223.0
 42
1.0
  0
ELLIPSE
  5
44
100
AcDbEntity
  8
0
  6
CONTINUOUS
 62
     7
100
AcDbEllipse
 10
313.275
 20
245.5
 30
0.0
 11
-0.0000000000000078
 21
2.9999999999999893
 31
0.0
210
0.0
220
0.0
230
1.0
 40
0.900167
 41
0.0000000000000012
 42
1.5707963267949021
  0
ELLIPSE
  5
45
100
AcDbEntity
  8
0
  6
CONTINUOUS
 62
     7
100
AcDbEllipse
 10
313.5
 20
219.275
 30
0.0
 11
-2.9999999999999889
 21
-0.0000000000000303
 31
0.0
210
0.0
220
0.0
230
1.0
 40
0.925
 41
0.0000000000000012
 42
1.5707963267949021
  0
ELLIPSE
  5
46
100
AcDbEntity
  8
0
  6
CONTINUOUS
 62
     7
100
AcDbEllipse
 10
402.25
 20
219.275
 30
0.0
 11
2.9999999999999893
 21
0.0000000000000299
 31
0.0
210
0.0
220
0.0
230
1.0
 40
0.925
 41
-1.5707963267949021
 42
-0.0000000000000012
  0
ELLIPSE
  5
47
100
AcDbEntity
  8
0
  6
CONTINUOUS
 62
     7
100
AcDbEllipse
 10
402.25
 20
245.725
 30
0.0
 11
2.9999999999999893
 21
0.0000000000000118
 31
0.0
210
0.0
220
0.0
230
1.0
 40
0.925
 41
0.0000000000000012
 42
1.5707963267949021
  0
ELLIPSE
  5
49
102
{ACAD_REACTORS
330
48
102
}
100
AcDbEntity
  8
0
  6
CONTINUOUS
 62
     7
100
AcDbEllipse
 10
32.5
 20
283.5
 30
0.0
 11
1.7500000000000431
 21
-0.0000000000000072
 31
0.0
210
0.0
220
0.0
230
1.0
 40
0.857143
 41
0.0000000000000243
 42
1.5707963267948799
  0
ELLIPSE
  5
4A
102
{ACAD_REACTORS
330
48
102
}
100
AcDbEntity
  8
0
  6
CONTINUOUS
 62
     7
100
AcDbEllipse
 10
32.5
 20
274.5
 30
0.0
 11
-1.7500000000000229
 21
-0.0000000000000193
 31
0.0
210
0.0
220
0.0
230
1.0
 40
0.857143
 41
1.5707963267949079
 42
3.1415926535897611
  0
LWPOLYLINE
  5
4B
102
{ACAD_REACTORS
330
48
102
}
100
AcDbEntity
  8
0
  6
CONTINUOUS
 62
     7
100
AcDbPolyline
 90
        4
 70
     0
 10
32.55
 20
285.0
 10
24.75
 20
285.0
 10
24.75
 20
273.0
 10
32.55
 20
273.0
  0
LWPOLYLINE
  5
4C
102
{ACAD_REACTORS
330
4D
102
}
100
AcDbEntity
  8
0
  6
CONTINUOUS
 62
     7
100
AcDbPolyline
 90
        4
 70
     1
 10
95.5
 20
275.75
 10
105.5
 20
275.75
 10
105.5
 20
282.25
 10
95.5
 20
282.25
  0
HATCH
  5
4D
102
{ACAD_REACTORS
330
48
102
}
100
AcDbEntity
  8
0
 62
   254
100
AcDbHatch
 10
0.0
 20
0.0
 30
0.0
210
0.0
220
0.0
230
1.0
  2
SOLID
 70
     1
 71
     1
 91
        1
 92
        3
 72
     0
 73
     1
 93
        4
 10
95.499999999999901
 20
275.74999999999977
 10
105.49999999999915
 20
275.74999999999977
 10
105.49999999999915
 20
282.24999999999977
 10
95.499999999999901
 20
282.24999999999977
 97
        1
330
4C
 75
     0
 76
     1
 98
        0
  0
LINE
  5
4E
100
AcDbEntity
  8
0
  6
CONTINUOUS
 62
     7
100
AcDbLine
 10
211.600713
 20
285.058667
 30
0.0
 11
211.5
 21
258.865667
 31
0.0
  0
LINE
  5
4F
100
AcDbEntity
  8
0
  6
CONTINUOUS
 62
     7
100
AcDbLine
 10
214.5
 20
256.090667
 30
0.0
 11
301.0
 21
256.090667
 31
0.0
  0
LINE
  5
50
100
AcDbEntity
  8
0
  6
CONTINUOUS
 62
     7
100
AcDbLine
 10
303.999973
 20
258.853825
 30
0.0
 11
303.999973
 21
285.285
 31
0.0
  0
LINE
  5
51
100
AcDbEntity
  8
0
  6
CONTINUOUS
 62
     7
100
AcDbLine
 10
301.03449
 20
287.990659
 30
0.0
 11
214.36887
 21
287.990659
 31
0.0
  0
LWPOLYLINE
  5
52
100
AcDbEntity
  8
0
  6
CONTINUOUS
 62
     7
100
AcDbPolyline
 90
        3
 70
     0
 10
34.25
 20
283.55
 10
34.25
 20
284.75
 10
112.75
 20
284.75
  0
LINE
  5
53
100
AcDbEntity
  8
0
  6
CONTINUOUS
 62
     7
100
AcDbLine
 10
113.25
 20
284.25
 30
0.0
 11
113.25
 21
273.76
 31
0.0
  0
LWPOLYLINE
  5
54
100
AcDbEntity
  8
0
  6
CONTINUOUS
 62
     7
100
AcDbPolyline
 90
        3
 70
     0
 10
112.75
 20
273.25
 10
34.25
 20
273.25
 10
34.25
 20
274.52
  0
ARC
  5
55
100
AcDbEntity
  8
0
  6
CONTINUOUS
 62
     7
100
AcDbCircle
 10
112.75
 20
284.25
 30
0.0
 40
0.5
100
AcDbArc
 50
0.0
 51
90.0
  0
ELLIPSE
  5
56
100
AcDbEntity
  8
0
  6
CONTINUOUS
 62
     7
100
AcDbEllipse
 10
112.75
 20
273.76
 30
0.0
 11
-0.0000000000000045
 21
0.5100000000000432
 31
0.0
210
0.0
220
0.0
230
1.0
 40
0.980448
 41
-3.1415926535896879
 42
-1.5707963267949918
  0
LWPOLYLINE
  5
57
100
AcDbEntity
  8
0
  6
CONTINUOUS
 62
     7
100
AcDbPolyline
 90
        4
 70
     1
 10
351.03449
 20
268.730333
 10
401.03449
 20
268.730333
 10
401.03449
 20
274.730333
 10
351.03449
 20
274.730333
  0
LWPOLYLINE
  5
58
100
AcDbEntity
  8
0
  6
CONTINUOUS
 62
     7
100
AcDbPolyline
 90
        2
 70
     1
 10
315.53449
 20
281.230333
 42
-1.0
 10
315.53449
 20
284.230333
 42
-1.0
  0
LWPOLYLINE
  5
59
100
AcDbEntity
  8
0
  6
CONTINUOUS
 62
     7
100
AcDbPolyline
 90
        2
 70
     1
 10
315.78449
 20
262.230333
 42
1.0
 10
315.78449
 20
259.230333
 42
1.0
  0
LWPOLYLINE
  5
5A
100
AcDbEntity
  8
0
  6
CONTINUOUS
 62
     7
100
AcDbPolyline
 90
        2
 70
     1
 10
398.03449
 20
262.230333
 42
-1.0
 10
398.03449
 20
259.230333
 42
-1.0
  0
LWPOLYLINE
  5
5B
100
AcDbEntity
  8
0
  6
CONTINUOUS
 62
     7
100
AcDbPolyline
 90
        2
 70
     1
 10
398.03449
 20
281.230333
 42
1.0
 10
398.03449
 20
284.230333
 42
1.0
  0
LWPOLYLINE
  5
5C
100
AcDbEntity
  8
0
  6
CONTINUOUS
 62
     7
100
AcDbPolyline
 90
        2
 70
     1
 10
355.78449
 20
281.230333
 42
1.0
 10
355.78449
 20
284.230333
 42
1.0
  0
LWPOLYLINE
  5
5D
100
AcDbEntity
  8
0
  6
CONTINUOUS
 62
     7
100
AcDbPolyline
 90
        2
 70
     1
 10
355.53449
 20
259.230333
 42
1.0
 10
355.53449
 20
262.230333
 42
1.0
  0
ELLIPSE
  5
5E
100
AcDbEntity
  8
0
  6
CONTINUOUS
 62
     7
100
AcDbEllipse
 10
313.40949
 20
284.730333
 30
0.0
 11
-0.0000000000000078
 21
2.9999999999999893
 31
0.0
210
0.0
220
0.0
230
1.0
 40
0.900167
 41
0.0000000000000012
 42
1.5707963267949021
  0
ELLIPSE
  5
5F
100
AcDbEntity
  8
0
  6
CONTINUOUS
 62
     7
100
AcDbEllipse
 10
313.53449
 20
258.605333
 30
0.0
 11
-2.9999999999999889
 21
-0.0000000000000542
 31
0.0
210
0.0
220
0.0
230
1.0
 40
0.925
 41
0.0000000000000012
 42
1.5707963267949021
  0
ELLIPSE
  5
60
100
AcDbEntity
  8
0
  6
CONTINUOUS
 62
     7
100
AcDbEllipse
 10
400.03449
 20
258.605333
 30
0.0
 11
2.9999999999999893
 21
0.0000000000000299
 31
0.0
210
0.0
220
0.0
230
1.0
 40
0.925
 41
-1.5707963267949021
 42
-0.0000000000000012
  0
ELLIPSE
  5
61
100
AcDbEntity
  8
0
  6
CONTINUOUS
 62
     7
100
AcDbEllipse
 10
400.034462
 20
284.964667
 30
0.0
 11
2.9999999999999893
 21
0.0000000000000118
 31
0.0
210
0.0
220
0.0
230
1.0
 40
0.925
 41
0.0000000000000012
 42
1.5707963267949021
  0
LINE
  5
62
100
AcDbEntity
  8
0
  6
CONTINUOUS
 62
     7
100
AcDbLine
 10
310.635203
 20
284.798333
 30
0.0
 11
310.53449
 21
258.605333
 31
0.0
  0
LINE
  5
63
100
AcDbEntity
  8
0
  6
CONTINUOUS
 62
     7
100
AcDbLine
 10
313.53449
 20
255.830333
 30
0.0
 11
400.03449
 21
255.830333
 31
0.0
  0
LINE
  5
64
100
AcDbEntity
  8
0
  6
CONTINUOUS
 62
     7
100
AcDbLine
 10
403.034462
 20
258.593492
 30
0.0
 11
403.034462
 21
285.024667
 31
0.0
  0
LINE
  5
65
100
AcDbEntity
  8
0
  6
CONTINUOUS
 62
     7
100
AcDbLine
 10
400.068979
 20
287.730326
 30
0.0
 11
313.40336
 21
287.730326
 31
0.0
  0
LWPOLYLINE
  5
67
102
{ACAD_REACTORS
330
66
102
}
100
AcDbEntity
  8
0
  6
CONTINUOUS
 62
     7
100
AcDbPolyline
 90
        2
 70
     1
 10
296.75
 20
195.320333
 42
-1.0
 10
296.75
 20
198.320333
 42
-1.0
  0
LWPOLYLINE
  5
68
102
{ACAD_REACTORS
330
66
102
}
100
AcDbEntity
  8
0
  6
CONTINUOUS
 62
     7
100
AcDbPolyline
 90
        2
 70
     1
 10
297.0
 20
176.320333
 42
1.0
 10
297.0
 20
173.320333
 42
1.0
  0
ELLIPSE
  5
69
102
{ACAD_REACTORS
330
66
102
}
100
AcDbEntity
  8
0
  6
CONTINUOUS
 62
     7
100
AcDbEllipse
 10
294.625
 20
198.820333
 30
0.0
 11
-0.0000000000000078
 21
2.9999999999999893
 31
0.0
210
0.0
220
0.0
230
1.0
 40
0.900167
 41
0.0000000000000012
 42
1.5707963267949021
  0
ELLIPSE
  5
6A
102
{ACAD_REACTORS
330
66
102
}
100
AcDbEntity
  8
0
  6
CONTINUOUS
 62
     7
100
AcDbEllipse
 10
294.75
 20
172.695333
 30
0.0
 11
-2.9999999999999889
 21
-0.0000000000000303
 31
0.0
210
0.0
220
0.0
230
1.0
 40
0.925
 41
0.0000000000000012
 42
1.5707963267949021
  0
LINE
  5
6B
102
{ACAD_REACTORS
330
66
102
}
100
AcDbEntity
  8
0
  6
CONTINUOUS
 62
     7
100
AcDbLine
 10
291.850713
 20
198.888333
 30
0.0
 11
291.75
 21
172.695333
 31
0.0
  0
ELLIPSE
  5
6C
102
{ACAD_REACTORS
330
66
102
}
100
AcDbEntity
  8
0
  6
CONTINUOUS
 62
     7
100
AcDbEllipse
 10
298.908333
 20
198.829667
 30
0.0
 11
-0.0000000000000803
 21
2.9999999999999893
 31
0.0
210
0.0
220
0.0
230
1.0
 40
0.927496
 41
-1.5707963267949021
 42
-0.0000000000000012
  0
ELLIPSE
  5
6D
102
{ACAD_REACTORS
330
66
102
}
100
AcDbEntity
  8
0
  6
CONTINUOUS
 62
     7
100
AcDbEllipse
 10
298.65
 20
172.695333
 30
0.0
 11
2.9999999999999756
 21
-0.0000000000000872
 31
0.0
210
0.0
220
0.0
230
1.0
 40
0.925
 41
-1.5707963267948499
 42
0.0000000000000509
  0
LINE
  5
6E
102
{ACAD_REACTORS
330
66
102
}
100
AcDbEntity
  8
0
  6
CONTINUOUS
 62
     7
100
AcDbLine
 10
301.683333
 20
198.829667
 30
0.0
 11
301.646412
 21
172.559662
 31
0.0
  0
LINE
  5
6F
102
{ACAD_REACTORS
330
66
102
}
100
AcDbEntity
  8
0
  6
CONTINUOUS
 62
     7
100
AcDbLine
 10
294.561561
 20
201.819549
 30
0.0
 11
298.908333
 21
201.829667
 31
0.0
  0
LINE
  5
70
102
{ACAD_REACTORS
330
66
102
}
100
AcDbEntity
  8
0
  6
CONTINUOUS
 62
     7
100
AcDbLine
 10
294.75
 20
169.920333
 30
0.0
 11
298.75651
 21
169.922083
 31
0.0
  0
LWPOLYLINE
  5
72
102
{ACAD_REACTORS
330
71
102
}
100
AcDbEntity
  8
0
  6
CONTINUOUS
 62
     7
100
AcDbPolyline
 90
        2
 70
     1
 10
309.5
 20
195.525
 42
-1.0
 10
309.5
 20
198.525
 42
-1.0
  0
LWPOLYLINE
  5
73
102
{ACAD_REACTORS
330
71
102
}
100
AcDbEntity
  8
0
  6
CONTINUOUS
 62
     7
100
AcDbPolyline
 90
        2
 70
     1
 10
309.75
 20
176.525
 42
1.0
 10
309.75
 20
173.525
 42
1.0
  0
ELLIPSE
  5
74
102
{ACAD_REACTORS
330
71
102
}
100
AcDbEntity
  8
0
  6
CONTINUOUS
 62
     7
100
AcDbEllipse
 10
307.375
 20
199.025
 30
0.0
 11
-0.0000000000000078
 21
2.9999999999999893
 31
0.0
210
0.0
220
0.0
230
1.0
 40
0.900167
 41
0.0000000000000012
 42
1.5707963267949021
  0
ELLIPSE
  5
75
102
{ACAD_REACTORS
330
71
102
}
100
AcDbEntity
  8
0
  6
CONTINUOUS
 62
     7
100
AcDbEllipse
 10
307.5
 20
172.9
 30
0.0
 11
-2.9999999999999889
 21
-0.0000000000000303
 31
0.0
210
0.0
220
0.0
230
1.0
 40
0.925
 41
0.0000000000000012
 42
1.5707963267949021
  0
LINE
  5
76
102
{ACAD_REACTORS
330
71
102
}
100
AcDbEntity
  8
0
  6
CONTINUOUS
 62
     7
100
AcDbLine
 10
304.600713
 20
199.093
 30
0.0
 11
304.5
 21
172.9
 31
0.0
  0
ELLIPSE
  5
77
102
{ACAD_REACTORS
330
71
102
}
100
AcDbEntity
  8
0
  6
CONTINUOUS
 62
     7
100
AcDbEllipse
 10
311.658333
 20
199.034333
 30
0.0
 11
-0.0000000000000803
 21
2.9999999999999893
 31
0.0
210
0.0
220
0.0
230
1.0
 40
0.927496
 41
-1.5707963267949021
 42
-0.0000000000000012
  0
ELLIPSE
  5
78
102
{ACAD_REACTORS
330
71
102
}
100
AcDbEntity
  8
0
  6
CONTINUOUS
 62
     7
100
AcDbEllipse
 10
311.4
 20
172.9
 30
0.0
 11
2.9999999999999756
 21
-0.0000000000000872
 31
0.0
210
0.0
220
0.0
230
1.0
 40
0.925
 41
-1.5707963267948499
 42
0.0000000000000509
  0
LINE
  5
79
102
{ACAD_REACTORS
330
71
102
}
100
AcDbEntity
  8
0
  6
CONTINUOUS
 62
     7
100
AcDbLine
 10
314.433333
 20
199.034333
 30
0.0
 11
314.396412
 21
172.764329
 31
0.0
  0
LINE
  5
7A
102
{ACAD_REACTORS
330
71
102
}
100
AcDbEntity
  8
0
  6
CONTINUOUS
 62
     7
100
AcDbLine
 10
307.311561
 20
202.024216
 30
0.0
 11
311.658333
 21
202.034333
 31
0.0
  0
LINE
  5
7B
102
{ACAD_REACTORS
330
71
102
}
100
AcDbEntity
  8
0
  6
CONTINUOUS
 62
     7
100
AcDbLine
 10
307.5
 20
170.125
 30
0.0
 11
311.50651
 21
170.126749
 31
0.0
  0
LWPOLYLINE
  5
7D
102
{ACAD_REACTORS
330
7C
102
}
100
AcDbEntity
  8
0
  6
CONTINUOUS
 62
     7
100
AcDbPolyline
 90
        2
 70
     1
 10
284.0
 20
195.070333
 42
-1.0
 10
284.0
 20
198.070333
 42
-1.0
  0
LWPOLYLINE
  5
7E
102
{ACAD_REACTORS
330
7C
102
}
100
AcDbEntity
  8
0
  6
CONTINUOUS
 62
     7
100
AcDbPolyline
 90
        2
 70
     1
 10
284.25
 20
176.070333
 42
1.0
 10
284.25
 20
173.070333
 42
1.0
  0
ELLIPSE
  5
7F
102
{ACAD_REACTORS
330
7C
102
}
100
AcDbEntity
  8
0
  6
CONTINUOUS
 62
     7
100
AcDbEllipse
 10
281.875
 20
198.570333
 30
0.0
 11
-0.0000000000000078
 21
2.9999999999999893
 31
0.0
210
0.0
220
0.0
230
1.0
 40
0.900167
 41
0.0000000000000012
 42
1.5707963267949021
  0
ELLIPSE
  5
80
102
{ACAD_REACTORS
330
7C
102
}
100
AcDbEntity
  8
0
  6
CONTINUOUS
 62
     7
100
AcDbEllipse
 10
282.0
 20
172.445333
 30
0.0
 11
-2.9999999999999889
 21
-0.0000000000000303
 31
0.0
210
0.0
220
0.0
230
1.0
 40
0.925
 41
0.0000000000000012
 42
1.5707963267949021
  0
LINE
  5
81
102
{ACAD_REACTORS
330
7C
102
}
100
AcDbEntity
  8
0
  6
CONTINUOUS
 62
     7
100
AcDbLine
 10
279.100713
 20
198.638333
 30
0.0
 11
279.0
 21
172.445333
 31
0.0
  0
ELLIPSE
  5
82
102
{ACAD_REACTORS
330
7C
102
}
100
AcDbEntity
  8
0
  6
CONTINUOUS
 62
     7
100
AcDbEllipse
 10
286.158333
 20
198.579667
 30
0.0
 11
-0.0000000000000803
 21
2.9999999999999893
 31
0.0
210
0.0
220
0.0
230
1.0
 40
0.927496
 41
-1.5707963267949021
 42
-0.0000000000000012
  0
ELLIPSE
  5
83
102
{ACAD_REACTORS
330
7C
102
}
100
AcDbEntity
  8
0
  6
CONTINUOUS
 62
     7
100
AcDbEllipse
 10
285.9
 20
172.445333
 30
0.0
 11
2.9999999999999756
 21
-0.0000000000000872
 31
0.0
210
0.0
220
0.0
230
1.0
 40
0.925
 41
-1.5707963267948499
 42
0.0000000000000509
  0
LINE
  5
84
102
{ACAD_REACTORS
330
7C
102
}
100
AcDbEntity
  8
0
  6
CONTINUOUS
 62
     7
100
AcDbLine
 10
288.933333
 20
198.579667
 30
0.0
 11
288.896412
 21
172.309662
 31
0.0
  0
LINE
  5
85
102
{ACAD_REACTORS
330
7C
102
}
100
AcDbEntity
  8
0
  6
CONTINUOUS
 62
     7
100
AcDbLine
 10
281.811561
 20
201.569549
 30
0.0
 11
286.158333
 21
201.579667
 31
0.0
  0
LINE
  5
86
102
{ACAD_REACTORS
330
7C
102
}
100
AcDbEntity
  8
0
  6
CONTINUOUS
 62
     7
100
AcDbLine
 10
282.0
 20
169.670333
 30
0.0
 11
286.00651
 21
169.672083
 31
0.0
  0
LWPOLYLINE
  5
87
100
AcDbEntity
  8
0
  6
CONTINUOUS
 62
     7
100
AcDbPolyline
 90
        2
 70
     1
 10
324.25
 20
195.559104
 42
1.0
 10
324.25
 20
198.559104
 42
1.0
  0
LWPOLYLINE
  5
88
100
AcDbEntity
  8
0
  6
CONTINUOUS
 62
     7
100
AcDbPolyline
 90
        2
 70
     1
 10
324.0
 20
173.559104
 42
1.0
 10
324.0
 20
176.559104
 42
1.0
  0
LWPOLYLINE
  5
89
100
AcDbEntity
  8
0
  6
CONTINUOUS
 62
     7
100
AcDbPolyline
 90
        4
 70
     0
 10
331.133333
 20
189.718438
 10
319.15
 20
189.718438
 10
319.15
 20
182.468438
 10
331.133333
 20
182.468438
  0
ELLIPSE
  5
8A
100
AcDbEntity
  8
0
  6
CONTINUOUS
 62
     7
100
AcDbEllipse
 10
319.908333
 20
199.068438
 30
0.0
 11
-0.0000000000000078
 21
2.9999999999999893
 31
0.0
210
0.0
220
0.0
230
1.0
 40
0.900167
 41
0.0000000000000012
 42
1.5707963267949021
  0
ELLIPSE
  5
8B
100
AcDbEntity
  8
0
  6
CONTINUOUS
 62
     7
100
AcDbEllipse
 10
320.166667
 20
172.934104
 30
0.0
 11
-2.9999999999999756
 21
-0.000000000000166
 31
0.0
210
0.0
220
0.0
230
1.0
 40
0.925
 41
-0.0000000000000509
 42
1.5707963267948499
  0
LINE
  5
8C
100
AcDbEntity
  8
0
  6
CONTINUOUS
 62
     7
100
AcDbLine
 10
317.174757
 20
172.730444
 30
0.0
 11
317.133333
 21
198.968438
 31
0.0
  0
ELLIPSE
  5
8D
100
AcDbEntity
  8
0
  6
CONTINUOUS
 62
     7
100
AcDbEllipse
 10
328.408333
 20
199.079667
 30
0.0
 11
-0.0000000000000749
 21
2.9999999999999889
 31
0.0
210
0.0
220
0.0
230
1.0
 40
0.928361
 41
-1.5707963267949021
 42
-0.0000000000000012
  0
ELLIPSE
  5
8E
100
AcDbEntity
  8
0
  6
CONTINUOUS
 62
     7
100
AcDbEllipse
 10
328.15
 20
172.945333
 30
0.0
 11
2.9999999999999756
 21
-0.0000000000000818
 31
0.0
210
0.0
220
0.0
230
1.0
 40
0.925
 41
-1.5707963267948499
 42
0.0000000000000509
  0
LINE
  5
8F
100
AcDbEntity
  8
0
  6
CONTINUOUS
 62
     7
100
AcDbLine
 10
331.133333
 20
199.268438
 30
0.0
 11
331.133333
 21
189.768438
 31
0.0
  0
LINE
  5
90
100
AcDbEntity
  8
0
  6
CONTINUOUS
 62
     7
100
AcDbLine
 10
331.133333
 20
182.468438
 30
0.0
 11
331.136108
 21
172.678588
 31
0.0
  0
LINE
  5
91
100
AcDbEntity
  8
0
  6
CONTINUOUS
 62
     7
100
AcDbLine
 10
319.908333
 20
202.068438
 30
0.0
 11
328.698138
 21
202.063262
 31
0.0
  0
LINE
  5
92
100
AcDbEntity
  8
0
  6
CONTINUOUS
 62
     7
100
AcDbLine
 10
320.101607
 20
170.159757
 30
0.0
 11
328.166213
 21
170.170374
 31
0.0
  0
LWPOLYLINE
  5
93
100
AcDbEntity
  8
0
  6
CONTINUOUS
 62
     7
100
AcDbPolyline
 90
        2
 70
     1
 10
339.75
 20
195.559104
 42
1.0
 10
339.75
 20
198.559104
 42
1.0
  0
LWPOLYLINE
  5
94
100
AcDbEntity
  8
0
  6
CONTINUOUS
 62
     7
100
AcDbPolyline
 90
        2
 70
     1
 10
339.5
 20
173.559104
 42
1.0
 10
339.5
 20
176.559104
 42
1.0
  0
LWPOLYLINE
  5
95
100
AcDbEntity
  8
0
  6
CONTINUOUS
 62
     7
100
AcDbPolyline
 90
        4
 70
     0
 10
346.633333
 20
189.718438
 10
334.65
 20
189.718438
 10
334.65
 20
182.468438
 10
346.633333
 20
182.468438
  0
ELLIPSE
  5
96
100
AcDbEntity
  8
0
  6
CONTINUOUS
 62
     7
100
AcDbEllipse
 10
335.408333
 20
199.068438
 30
0.0
 11
-0.0000000000000078
 21
2.9999999999999893
 31
0.0
210
0.0
220
0.0
230
1.0
 40
0.900167
 41
0.0000000000000012
 42
1.5707963267949021
  0
ELLIPSE
  5
97
100
AcDbEntity
  8
0
  6
CONTINUOUS
 62
     7
100
AcDbEllipse
 10
335.666667
 20
172.934104
 30
0.0
 11
-2.9999999999999756
 21
-0.000000000000166
 31
0.0
210
0.0
220
0.0
230
1.0
 40
0.925
 41
-0.0000000000000509
 42
1.5707963267948499
  0
LINE
  5
98
100
AcDbEntity
  8
0
  6
CONTINUOUS
 62
     7
100
AcDbLine
 10
332.674757
 20
172.730444
 30
0.0
 11
332.633333
 21
198.968438
 31
0.0
  0
ELLIPSE
  5
99
100
AcDbEntity
  8
0
  6
CONTINUOUS
 62
     7
100
AcDbEllipse
 10
343.908333
 20
199.079667
 30
0.0
 11
-0.0000000000000749
 21
2.9999999999999889
 31
0.0
210
0.0
220
0.0
230
1.0
 40
0.928361
 41
-1.5707963267949021
 42
-0.0000000000000012
  0
ELLIPSE
  5
9A
100
AcDbEntity
  8
0
  6
CONTINUOUS
 62
     7
100
AcDbEllipse
 10
343.65
 20
172.945333
 30
0.0
 11
2.9999999999999756
 21
-0.0000000000000818
 31
0.0
210
0.0
220
0.0
230
1.0
 40
0.925
 41
-1.5707963267948499
 42
0.0000000000000509
  0
LINE
  5
9B
100
AcDbEntity
  8
0
  6
CONTINUOUS
 62
     7
100
AcDbLine
 10
346.633333
 20
199.268438
 30
0.0
 11
346.633333
 21
189.768438
 31
0.0
  0
LINE
  5
9C
100
AcDbEntity
  8
0
  6
CONTINUOUS
 62
     7
100
AcDbLine
 10
346.633333
 20
182.468438
 30
0.0
 11
346.636108
 21
172.678588
 31
0.0
  0
LINE
  5
9D
100
AcDbEntity
  8
0
  6
CONTINUOUS
 62
     7
100
AcDbLine
 10
335.408333
 20
202.068438
 30
0.0
 11
344.198138
 21
202.063262
 31
0.0
  0
LINE
  5
9E
100
AcDbEntity
  8
0
  6
CONTINUOUS
 62
     7
100
AcDbLine
 10
335.601607
 20
170.159757
 30
0.0
 11
343.666213
 21
170.170374
 31
0.0
  0
LWPOLYLINE
  5
9F
100
AcDbEntity
  8
0
  6
CONTINUOUS
 62
     7
100
AcDbPolyline
 90
        2
 70
     1
 10
355.25
 20
195.729667
 42
1.0
 10
355.25
 20
198.729667
 42
1.0
  0
LWPOLYLINE
  5
A0
100
AcDbEntity
  8
0
  6
CONTINUOUS
 62
     7
100
AcDbPolyline
 90
        2
 70
     1
 10
355.0
 20
173.729667
 42
1.0
 10
355.0
 20
176.729667
 42
1.0
  0
LWPOLYLINE
  5
A1
100
AcDbEntity
  8
0
  6
CONTINUOUS
 62
     7
100
AcDbPolyline
 90
        4
 70
     0
 10
362.133333
 20
189.889
 10
350.15
 20
189.889
 10
350.15
 20
182.639
 10
362.133333
 20
182.639
  0
ELLIPSE
  5
A2
100
AcDbEntity
  8
0
  6
CONTINUOUS
 62
     7
100
AcDbEllipse
 10
350.908333
 20
199.239
 30
0.0
 11
-0.0000000000000078
 21
2.9999999999999893
 31
0.0
210
0.0
220
0.0
230
1.0
 40
0.900167
 41
0.0000000000000012
 42
1.5707963267949021
  0
ELLIPSE
  5
A3
100
AcDbEntity
  8
0
  6
CONTINUOUS
 62
     7
100
AcDbEllipse
 10
351.166667
 20
173.104667
 30
0.0
 11
-2.9999999999999756
 21
-0.000000000000166
 31
0.0
210
0.0
220
0.0
230
1.0
 40
0.925
 41
-0.0000000000000509
 42
1.5707963267948499
  0
LINE
  5
A4
100
AcDbEntity
  8
0
  6
CONTINUOUS
 62
     7
100
AcDbLine
 10
348.174757
 20
172.901007
 30
0.0
 11
348.133333
 21
199.139
 31
0.0
  0
ELLIPSE
  5
A5
100
AcDbEntity
  8
0
  6
CONTINUOUS
 62
     7
100
AcDbEllipse
 10
359.408333
 20
199.250229
 30
0.0
 11
-0.0000000000000749
 21
2.9999999999999889
 31
0.0
210
0.0
220
0.0
230
1.0
 40
0.928361
 41
-1.5707963267949021
 42
-0.0000000000000012
  0
ELLIPSE
  5
A6
100
AcDbEntity
  8
0
  6
CONTINUOUS
 62
     7
100
AcDbEllipse
 10
359.15
 20
173.115896
 30
0.0
 11
2.9999999999999756
 21
-0.0000000000000818
 31
0.0
210
0.0
220
0.0
230
1.0
 40
0.925
 41
-1.5707963267948499
 42
0.0000000000000509
  0
LINE
  5
A7
100
AcDbEntity
  8
0
  6
CONTINUOUS
 62
     7
100
AcDbLine
 10
362.133333
 20
199.439
 30
0.0
 11
362.133333
 21
189.939
 31
0.0
  0
LINE
  5
A8
100
AcDbEntity
  8
0
  6
CONTINUOUS
 62
     7
100
AcDbLine
 10
362.133333
 20
182.639
 30
0.0
 11
362.136108
 21
172.84915
 31
0.0
  0
LINE
  5
A9
100
AcDbEntity
  8
0
  6
CONTINUOUS
 62
     7
100
AcDbLine
 10
350.908333
 20
202.239
 30
0.0
 11
359.698138
 21
202.233824
 31
0.0
  0
LINE
  5
AA
100
AcDbEntity
  8
0
  6
CONTINUOUS
 62
     7
100
AcDbLine
 10
351.101607
 20
170.330319
 30
0.0
 11
359.166213
 21
170.340936
 31
0.0
  0
LWPOLYLINE
  5
AB
100
AcDbEntity
  8
0
  6
CONTINUOUS
 62
     7
100
AcDbPolyline
 90
        2
 70
     1
 10
370.1
 20
176.820333
 42
-1.0
 10
370.1
 20
173.820333
 42
-1.0
  0
LWPOLYLINE
  5
AC
100
AcDbEntity
  8
0
  6
CONTINUOUS
 62
     7
100
AcDbPolyline
 90
        2
 70
     1
 10
370.1
 20
195.820333
 42
1.0
 10
370.1
 20
198.820333
 42
1.0
  0
ELLIPSE
  5
AD
100
AcDbEntity
  8
0
  6
CONTINUOUS
 62
     7
100
AcDbEllipse
 10
372.1
 20
173.195333
 30
0.0
 11
2.9999999999999893
 21
0.0000000000000299
 31
0.0
210
0.0
220
0.0
230
1.0
 40
0.925
 41
-1.5707963267949021
 42
-0.0000000000000012
  0
ELLIPSE
  5
AE
100
AcDbEntity
  8
0
  6
CONTINUOUS
 62
     7
100
AcDbEllipse
 10
372.099973
 20
199.554667
 30
0.0
 11
2.9999999999999893
 21
0.0000000000000118
 31
0.0
210
0.0
220
0.0
230
1.0
 40
0.925
 41
0.0000000000000012
 42
1.5707963267949021
  0
LINE
  5
AF
100
AcDbEntity
  8
0
  6
CONTINUOUS
 62
     7
100
AcDbLine
 10
375.099973
 20
173.183492
 30
0.0
 11
375.099973
 21
199.614667
 31
0.0
  0
ELLIPSE
  5
B0
100
AcDbEntity
  8
0
  6
CONTINUOUS
 62
     7
100
AcDbEllipse
 10
368.125
 20
199.320333
 30
0.0
 11
-0.0000000000000078
 21
2.9999999999999893
 31
0.0
210
0.0
220
0.0
230
1.0
 40
0.900167
 41
0.0000000000000012
 42
1.5707963267949021
  0
ELLIPSE
  5
B1
100
AcDbEntity
  8
0
  6
CONTINUOUS
 62
     7
100
AcDbEllipse
 10
368.25
 20
173.195333
 30
0.0
 11
-2.9999999999999893
 21
-0.0000000000000089
 31
0.0
210
0.0
220
0.0
230
1.0
 40
0.925
 41
0.0000000000000012
 42
1.5707963267949021
  0
ELLIPSE
  5
B2
100
AcDbEntity
  8
0
  6
CONTINUOUS
 62
     7
100
AcDbEllipse
 10
372.408333
 20
199.329667
 30
0.0
 11
-0.000000000000099
 21
2.9999999999999889
 31
0.0
210
0.0
220
0.0
230
1.0
 40
0.927324
 41
-1.5707963267949021
 42
-0.0000000000000012
  0
ELLIPSE
  5
B3
100
AcDbEntity
  8
0
  6
CONTINUOUS
 62
     7
100
AcDbEllipse
 10
372.15
 20
173.195333
 30
0.0
 11
2.9999999999999756
 21
-0.0000000000000818
 31
0.0
210
0.0
220
0.0
230
1.0
 40
0.925
 41
-1.5707963267948499
 42
0.0000000000000509
  0
LINE
  5
B4
100
AcDbEntity
  8
0
  6
CONTINUOUS
 62
     7
100
AcDbLine
 10
375.183333
 20
199.329667
 30
0.0
 11
375.146412
 21
173.059662
 31
0.0
  0
LWPOLYLINE
  5
B5
100
AcDbEntity
  8
0
  6
CONTINUOUS
 62
     7
100
AcDbPolyline
 90
        4
 70
     0
 10
365.25
 20
189.979667
 10
373.983333
 20
189.979667
 10
373.983333
 20
182.729667
 10
365.25
 20
182.729667
  0
LINE
  5
B6
100
AcDbEntity
  8
0
  6
CONTINUOUS
 62
     7
100
AcDbLine
 10
365.355808
 20
199.514333
 30
0.0
 11
365.25
 21
189.979667
 31
0.0
  0
LINE
  5
B7
100
AcDbEntity
  8
0
  6
CONTINUOUS
 62
     7
100
AcDbLine
 10
365.25
 20
182.729667
 30
0.0
 11
365.25
 21
173.195333
 31
0.0
  0
LINE
  5
B8
100
AcDbEntity
  8
0
  6
CONTINUOUS
 62
     7
100
AcDbLine
 10
368.125
 20
202.320333
 30
0.0
 11
372.099973
 21
202.329667
 31
0.0
  0
LINE
  5
B9
100
AcDbEntity
  8
0
  6
CONTINUOUS
 62
     7
100
AcDbLine
 10
368.25
 20
170.420333
 30
0.0
 11
371.933333
 21
170.420333
 31
0.0
  0
LWPOLYLINE
  5
BB
102
{ACAD_REACTORS
330
BA
102
}
100
AcDbEntity
  8
0
  6
CONTINUOUS
 62
     7
100
AcDbPolyline
 90
        2
 70
     1
 10
30.781277
 20
209.162505
 42
1.0
 10
30.781277
 20
206.162505
 42
1.0
  0
LWPOLYLINE
  5
BC
102
{ACAD_REACTORS
330
BA
102
}
100
AcDbEntity
  8
0
  6
CONTINUOUS
 62
     7
100
AcDbPolyline
 90
        2
 70
     1
 10
30.781277
 20
157.162505
 42
1.0
 10
30.781277
 20
154.162505
 42
1.0
  0
LWPOLYLINE
  5
BD
102
{ACAD_REACTORS
330
BA
102
}
100
AcDbEntity
  8
0
  6
CONTINUOUS
 62
     7
100
AcDbPolyline
 90
        2
 70
     1
 10
72.681277
 20
210.162505
 42
1.0
 10
72.681277
 20
207.162505
 42
1.0
  0
LWPOLYLINE
  5
BE
102
{ACAD_REACTORS
330
BA
102
}
100
AcDbEntity
  8
0
  6
CONTINUOUS
 62
     7
100
AcDbPolyline
 90
        2
 70
     1
 10
68.781277
 20
147.162505
 42
1.0
 10
68.781277
 20
144.162505
 42
1.0
  0
LINE
  5
BF
102
{ACAD_REACTORS
330
BA
102
}
100
AcDbEntity
  8
0
  6
CONTINUOUS
 62
     7
100
AcDbLine
 10
85.281277
 20
170.542505
 30
0.0
 11
72.781277
 21
172.362505
 31
0.0
  0
LINE
  5
C0
102
{ACAD_REACTORS
330
BA
102
}
100
AcDbEntity
  8
0
  6
CONTINUOUS
 62
     7
100
AcDbLine
 10
141.281277
 20
170.642505
 30
0.0
 11
153.781277
 21
172.462505
 31
0.0
  0
LINE
  5
C1
102
{ACAD_REACTORS
330
BA
102
}
100
AcDbEntity
  8
0
  6
CONTINUOUS
 62
     7
100
AcDbLine
 10
141.281277
 20
192.662505
 30
0.0
 11
153.781277
 21
190.962505
 31
0.0
  0
LINE
  5
C2
102
{ACAD_REACTORS
330
BA
102
}
100
AcDbEntity
  8
0
  6
CONTINUOUS
 62
     7
100
AcDbLine
 10
153.781277
 20
172.462505
 30
0.0
 11
153.781277
 21
190.962505
 31
0.0
  0
LWPOLYLINE
  5
C3
102
{ACAD_REACTORS
330
BA
102
}
100
AcDbEntity
  8
0
  6
CONTINUOUS
 62
     7
100
AcDbPolyline
 90
        3
 70
     0
 10
141.281277
 20
170.662505
 10
141.281277
 20
171.962505
 10
136.281277
 20
171.962505
  0
LWPOLYLINE
  5
C4
102
{ACAD_REACTORS
330
BA
102
}
100
AcDbEntity
  8
0
  6
CONTINUOUS
 62
     7
100
AcDbPolyline
 90
        3
 70
     0
 10
141.281277
 20
192.662505
 10
141.281277
 20
191.362505
 10
136.281277
 20
191.362505
  0
LINE
  5
C5
102
{ACAD_REACTORS
330
BA
102
}
100
AcDbEntity
  8
0
  6
CONTINUOUS
 62
     7
100
AcDbLine
 10
85.281277
 20
192.582505
 30
0.0
 11
72.781277
 21
190.762505
 31
0.0
  0
LINE
  5
C6
102
{ACAD_REACTORS
330
BA
102
}
100
AcDbEntity
  8
0
  6
CONTINUOUS
 62
     7
100
AcDbLine
 10
72.790469
 20
172.361167
 30
0.0
 11
72.781277
 21
190.762505
 31
0.0
  0
LINE
  5
C7
102
{ACAD_REACTORS
330
BA
102
}
100
AcDbEntity
  8
0
  6
CONTINUOUS
 62
     7
100
AcDbLine
 10
88.281277
 20
171.862505
 30
0.0
 11
88.281277
 21
170.542574
 31
0.0
  0
LWPOLYLINE
  5
C8
102
{ACAD_REACTORS
330
BA
102
}
100
AcDbEntity
  8
0
  6
CONTINUOUS
 62
     7
100
AcDbPolyline
 90
        3
 70
     0
 10
85.281277
 20
170.512505
 10
85.281277
 20
171.862505
 10
88.281277
 20
171.862505
  0
LINE
  5
C9
102
{ACAD_REACTORS
330
BA
102
}
100
AcDbEntity
  8
0
  6
CONTINUOUS
 62
     7
100
AcDbLine
 10
88.281277
 20
170.542574
 30
0.0
 11
90.281277
 21
170.562505
 31
0.0
  0
LWPOLYLINE
  5
CA
102
{ACAD_REACTORS
330
BA
102
}
100
AcDbEntity
  8
0
  6
CONTINUOUS
 62
     7
100
AcDbPolyline
 90
        3
 70
     0
 10
90.281277
 20
170.562505
 10
90.281277
 20
168.662505
 10
136.281277
 20
168.612505
  0
LINE
  5
CB
102
{ACAD_REACTORS
330
BA
102
}
100
AcDbEntity
  8
0
  6
CONTINUOUS
 62
     7
100
AcDbLine
 10
136.281277
 20
168.612505
 30
0.0
 11
136.281277
 21
171.962505
 31
0.0
  0
LINE
  5
CC
102
{ACAD_REACTORS
330
BA
102
}
100
AcDbEntity
  8
0
  6
CONTINUOUS
 62
     7
100
AcDbLine
 10
88.281277
 20
191.212505
 30
0.0
 11
88.281277
 21
192.532436
 31
0.0
  0
LWPOLYLINE
  5
CD
102
{ACAD_REACTORS
330
BA
102
}
100
AcDbEntity
  8
0
  6
CONTINUOUS
 62
     7
100
AcDbPolyline
 90
        3
 70
     0
 10
85.281277
 20
192.562505
 10
85.281277
 20
191.212505
 10
88.281277
 20
191.212505
  0
LINE
  5
CE
102
{ACAD_REACTORS
330
BA
102
}
100
AcDbEntity
  8
0
  6
CONTINUOUS
 62
     7
100
AcDbLine
 10
88.281277
 20
192.532436
 30
0.0
 11
90.281277
 21
192.512505
 31
0.0
  0
LWPOLYLINE
  5
CF
102
{ACAD_REACTORS
330
BA
102
}
100
AcDbEntity
  8
0
  6
CONTINUOUS
 62
     7
100
AcDbPolyline
 90
        3
 70
     0
 10
90.281277
 20
192.512505
 10
90.281277
 20
194.412505
 10
136.281277
 20
194.462505
  0
LINE
  5
D0
102
{ACAD_REACTORS
330
BA
102
}
100
AcDbEntity
  8
0
  6
CONTINUOUS
 62
     7
100
AcDbLine
 10
136.281277
 20
194.462505
 30
0.0
 11
136.281277
 21
191.362505
 31
0.0
  0
LWPOLYLINE
  5
D1
102
{ACAD_REACTORS
330
BA
102
}
100
AcDbEntity
  8
0
  6
CONTINUOUS
 62
     7
100
AcDbPolyline
 90
        2
 70
     1
 10
157.781277
 20
168.162505
 42
1.0
 10
157.781277
 20
165.162505
 42
1.0
  0
LWPOLYLINE
  5
D2
102
{ACAD_REACTORS
330
BA
102
}
100
AcDbEntity
  8
0
  6
CONTINUOUS
 62
     7
100
AcDbPolyline
 90
        2
 70
     1
 10
157.781277
 20
195.162505
 42
-1.0
 10
157.781277
 20
198.162505
 42
-1.0
  0
LWPOLYLINE
  5
D3
102
{ACAD_REACTORS
330
BA
102
}
100
AcDbEntity
  8
0
  6
CONTINUOUS
 62
     7
100
AcDbPolyline
 90
        2
 70
     1
 10
63.281277
 20
168.162505
 42
-1.0
 10
63.281277
 20
165.162505
 42
-1.0
  0
LWPOLYLINE
  5
D4
102
{ACAD_REACTORS
330
BA
102
}
100
AcDbEntity
  8
0
  6
CONTINUOUS
 62
     7
100
AcDbPolyline
 90
        2
 70
     1
 10
63.281277
 20
195.162505
 42
1.0
 10
63.281277
 20
198.162505
 42
1.0
  0
LWPOLYLINE
  5
D5
102
{ACAD_REACTORS
330
BA
102
}
100
AcDbEntity
  8
0
  6
CONTINUOUS
 62
     7
100
AcDbPolyline
 90
        4
 70
     1
 10
130.531277
 20
166.162505
 10
90.531277
 20
166.162505
 10
90.531277
 20
163.162505
 10
130.531277
 20
163.162505
  0
LWPOLYLINE
  5
D6
102
{ACAD_REACTORS
330
BA
102
}
100
AcDbEntity
  8
0
  6
CONTINUOUS
 62
     7
100
AcDbPolyline
 90
        4
 70
     1
 10
130.381277
 20
197.162505
 10
90.381277
 20
197.162505
 10
90.381277
 20
200.162505
 10
130.381277
 20
200.162505
  0
LWPOLYLINE
  5
D7
102
{ACAD_REACTORS
330
BA
102
}
100
AcDbEntity
  8
0
  6
CONTINUOUS
 62
     7
100
AcDbPolyline
 90
        2
 70
     1
 10
45.781277
 20
203.662505
 42
-1.0
 10
55.781277
 20
203.662505
 42
-1.0
  0
LWPOLYLINE
  5
D8
102
{ACAD_REACTORS
330
BA
102
}
100
AcDbEntity
  8
0
  6
CONTINUOUS
 62
     7
100
AcDbPolyline
 90
        2
 70
     1
 10
49.781277
 20
160.662505
 42
-1.0
 10
59.781277
 20
160.662505
 42
-1.0
  0
LINE
  5
D9
102
{ACAD_REACTORS
330
BA
102
}
100
AcDbEntity
  8
0
  6
CONTINUOUS
 62
     7
100
AcDbLine
 10
21.281277
 20
219.162505
 30
0.0
 11
21.281277
 21
144.162505
 31
0.0
  0
ARC
  5
DA
102
{ACAD_REACTORS
330
BA
102
}
100
AcDbEntity
  8
0
  6
CONTINUOUS
 62
     7
100
AcDbCircle
 10
26.281277
 20
219.162505
 30
0.0
 40
4.875
100
AcDbArc
 50
90.0
 51
180.0
  0
ARC
  5
DB
102
{ACAD_REACTORS
330
BA
102
}
100
AcDbEntity
  8
0
  6
CONTINUOUS
 62
     7
100
AcDbCircle
 10
26.281277
 20
144.162505
 30
0.0
 40
5.0
100
AcDbArc
 50
180.0
 51
270.0
  0
LWPOLYLINE
  5
DC
102
{ACAD_REACTORS
330
BA
102
}
100
AcDbEntity
  8
0
  6
CONTINUOUS
 62
     7
100
AcDbPolyline
 90
        4
 70
     1
 10
138.281277
 20
201.662505
 10
153.281277
 20
201.662505
 10
153.281277
 20
207.662505
 10
138.281277
 20
207.662505
  0
LWPOLYLINE
  5
DD
102
{ACAD_REACTORS
330
BA
102
}
100
AcDbEntity
  8
0
  6
CONTINUOUS
 62
     7
100
AcDbPolyline
 90
        4
 70
     1
 10
168.281277
 20
201.662505
 10
183.281277
 20
201.662505
 10
183.281277
 20
207.662505
 10
168.281277
 20
207.662505
  0
LWPOLYLINE
  5
DE
102
{ACAD_REACTORS
330
BA
102
}
100
AcDbEntity
  8
0
  6
CONTINUOUS
 62
     7
100
AcDbPolyline
 90
        2
 70
     1
 10
30.5
 20
208.962495
 42
1.0
 10
30.5
 20
205.962495
 42
1.0
  0
LWPOLYLINE
  5
DF
102
{ACAD_REACTORS
330
BA
102
}
100
AcDbEntity
  8
0
  6
CONTINUOUS
 62
     7
100
AcDbPolyline
 90
        2
 70
     1
 10
30.5
 20
156.962495
 42
1.0
 10
30.5
 20
153.962495
 42
1.0
  0
LWPOLYLINE
  5
E0
102
{ACAD_REACTORS
330
BA
102
}
100
AcDbEntity
  8
0
  6
CONTINUOUS
 62
     7
100
AcDbPolyline
 90
        2
 70
     1
 10
72.4
 20
209.962495
 42
1.0
 10
72.4
 20
206.962495
 42
1.0
  0
LWPOLYLINE
  5
E1
102
{ACAD_REACTORS
330
BA
102
}
100
AcDbEntity
  8
0
  6
CONTINUOUS
 62
     7
100
AcDbPolyline
 90
        2
 70
     1
 10
68.5
 20
146.962495
 42
1.0
 10
68.5
 20
143.962495
 42
1.0
  0
LINE
  5
E2
102
{ACAD_REACTORS
330
BA
102
}
100
AcDbEntity
  8
0
  6
CONTINUOUS
 62
     7
100
AcDbLine
 10
85.0
 20
170.342495
 30
0.0
 11
72.5
 21
172.162495
 31
0.0
  0
LINE
  5
E3
102
{ACAD_REACTORS
330
BA
102
}
100
AcDbEntity
  8
0
  6
CONTINUOUS
 62
     7
100
AcDbLine
 10
141.0
 20
170.442495
 30
0.0
 11
153.5
 21
172.262495
 31
0.0
  0
LINE
  5
E4
102
{ACAD_REACTORS
330
BA
102
}
100
AcDbEntity
  8
0
  6
CONTINUOUS
 62
     7
100
AcDbLine
 10
141.0
 20
192.462495
 30
0.0
 11
153.5
 21
190.762495
 31
0.0
  0
LINE
  5
E5
102
{ACAD_REACTORS
330
BA
102
}
100
AcDbEntity
  8
0
  6
CONTINUOUS
 62
     7
100
AcDbLine
 10
153.5
 20
172.262495
 30
0.0
 11
153.5
 21
190.762495
 31
0.0
  0
LWPOLYLINE
  5
E6
102
{ACAD_REACTORS
330
BA
102
}
100
AcDbEntity
  8
0
  6
CONTINUOUS
 62
     7
100
AcDbPolyline
 90
        3
 70
     0
 10
141.0
 20
170.462495
 10
141.0
 20
171.762495
 10
136.0
 20
171.762495
  0
LWPOLYLINE
  5
E7
102
{ACAD_REACTORS
330
BA
102
}
100
AcDbEntity
  8
0
  6
CONTINUOUS
 62
     7
100
AcDbPolyline
 90
        3
 70
     0
 10
141.0
 20
192.462495
 10
141.0
 20
191.162495
 10
136.0
 20
191.162495
  0
LINE
  5
E8
102
{ACAD_REACTORS
330
BA
102
}
100
AcDbEntity
  8
0
  6
CONTINUOUS
 62
     7
100
AcDbLine
 10
85.0
 20
192.382495
 30
0.0
 11
72.5
 21
190.562495
 31
0.0
  0
LINE
  5
E9
102
{ACAD_REACTORS
330
BA
102
}
100
AcDbEntity
  8
0
  6
CONTINUOUS
 62
     7
100
AcDbLine
 10
72.509192
 20
172.161156
 30
0.0
 11
72.5
 21
190.562495
 31
0.0
  0
LINE
  5
EA
102
{ACAD_REACTORS
330
BA
102
}
100
AcDbEntity
  8
0
  6
CONTINUOUS
 62
     7
100
AcDbLine
 10
88.0
 20
171.662495
 30
0.0
 11
88.0
 21
170.342564
 31
0.0
  0
LWPOLYLINE
  5
EB
102
{ACAD_REACTORS
330
BA
102
}
100
AcDbEntity
  8
0
  6
CONTINUOUS
 62
     7
100
AcDbPolyline
 90
        3
 70
     0
 10
85.0
 20
170.312495
 10
85.0
 20
171.662495
 10
88.0
 20
171.662495
  0
LINE
  5
EC
102
{ACAD_REACTORS
330
BA
102
}
100
AcDbEntity
  8
0
  6
CONTINUOUS
 62
     7
100
AcDbLine
 10
88.0
 20
170.342564
 30
0.0
 11
90.0
 21
170.362495
 31
0.0
  0
LWPOLYLINE
  5
ED
102
{ACAD_REACTORS
330
BA
102
}
100
AcDbEntity
  8
0
  6
CONTINUOUS
 62
     7
100
AcDbPolyline
 90
        3
 70
     0
 10
90.0
 20
170.362495
 10
90.0
 20
168.462495
 10
136.0
 20
168.412495
  0
LINE
  5
EE
102
{ACAD_REACTORS
330
BA
102
}
100
AcDbEntity
  8
0
  6
CONTINUOUS
 62
     7
100
AcDbLine
 10
136.0
 20
168.412495
 30
0.0
 11
136.0
 21
171.762495
 31
0.0
  0
LINE
  5
EF
102
{ACAD_REACTORS
330
BA
102
}
100
AcDbEntity
  8
0
  6
CONTINUOUS
 62
     7
100
AcDbLine
 10
88.0
 20
191.012495
 30
0.0
 11
88.0
 21
192.332426
 31
0.0
  0
LWPOLYLINE
  5
F0
102
{ACAD_REACTORS
330
BA
102
}
100
AcDbEntity
  8
0
  6
CONTINUOUS
 62
     7
100
AcDbPolyline
 90
        3
 70
     0
 10
85.0
 20
192.362495
 10
85.0
 20
191.012495
 10
88.0
 20
191.012495
  0
LINE
  5
F1
102
{ACAD_REACTORS
330
BA
102
}
100
AcDbEntity
  8
0
  6
CONTINUOUS
 62
     7
100
AcDbLine
 10
88.0
 20
192.332426
 30
0.0
 11
90.0
 21
192.312495
 31
0.0
  0
LWPOLYLINE
  5
F2
102
{ACAD_REACTORS
330
BA
102
}
100
AcDbEntity
  8
0
  6
CONTINUOUS
 62
     7
100
AcDbPolyline
 90
        3
 70
     0
 10
90.0
 20
192.312495
 10
90.0
 20
194.212495
 10
136.0
 20
194.262495
  0
LINE
  5
F3
102
{ACAD_REACTORS
330
BA
102
}
100
AcDbEntity
  8
0
  6
CONTINUOUS
 62
     7
100
AcDbLine
 10
136.0
 20
194.262495
 30
0.0
 11
136.0
 21
191.162495
 31
0.0
  0
LWPOLYLINE
  5
F4
102
{ACAD_REACTORS
330
BA
102
}
100
AcDbEntity
  8
0
  6
CONTINUOUS
 62
     7
100
AcDbPolyline
 90
        2
 70
     1
 10
157.5
 20
167.962495
 42
1.0
 10
157.5
 20
164.962495
 42
1.0
  0
LWPOLYLINE
  5
F5
102
{ACAD_REACTORS
330
BA
102
}
100
AcDbEntity
  8
0
  6
CONTINUOUS
 62
     7
100
AcDbPolyline
 90
        2
 70
     1
 10
157.5
 20
194.962495
 42
-1.0
 10
157.5
 20
197.962495
 42
-1.0
  0
LWPOLYLINE
  5
F6
102
{ACAD_REACTORS
330
BA
102
}
100
AcDbEntity
  8
0
  6
CONTINUOUS
 62
     7
100
AcDbPolyline
 90
        2
 70
     1
 10
63.0
 20
167.962495
 42
-1.0
 10
63.0
 20
164.962495
 42
-1.0
  0
LWPOLYLINE
  5
F7
102
{ACAD_REACTORS
330
BA
102
}
100
AcDbEntity
  8
0
  6
CONTINUOUS
 62
     7
100
AcDbPolyline
 90
        2
 70
     1
 10
63.0
 20
194.962495
 42
1.0
 10
63.0
 20
197.962495
 42
1.0
  0
LWPOLYLINE
  5
F8
102
{ACAD_REACTORS
330
BA
102
}
100
AcDbEntity
  8
0
  6
CONTINUOUS
 62
     7
100
AcDbPolyline
 90
        4
 70
     1
 10
130.25
 20
165.962495
 10
90.25
 20
165.962495
 10
90.25
 20
162.962495
 10
130.25
 20
162.962495
  0
LWPOLYLINE
  5
F9
102
{ACAD_REACTORS
330
BA
102
}
100
AcDbEntity
  8
0
  6
CONTINUOUS
 62
     7
100
AcDbPolyline
 90
        4
 70
     1
 10
130.1
 20
196.962495
 10
90.1
 20
196.962495
 10
90.1
 20
199.962495
 10
130.1
 20
199.962495
  0
LWPOLYLINE
  5
FA
102
{ACAD_REACTORS
330
BA
102
}
100
AcDbEntity
  8
0
  6
CONTINUOUS
 62
     7
100
AcDbPolyline
 90
        2
 70
     1
 10
45.5
 20
203.462495
 42
-1.0
 10
55.5
 20
203.462495
 42
-1.0
  0
LWPOLYLINE
  5
FB
102
{ACAD_REACTORS
330
BA
102
}
100
AcDbEntity
  8
0
  6
CONTINUOUS
 62
     7
100
AcDbPolyline
 90
        2
 70
     1
 10
49.5
 20
160.462495
 42
-1.0
 10
59.5
 20
160.462495
 42
-1.0
  0
LWPOLYLINE
  5
FC
102
{ACAD_REACTORS
330
BA
102
}
100
AcDbEntity
  8
0
  6
CONTINUOUS
 62
     7
100
AcDbPolyline
 90
        4
 70
     0
 10
26.0
 20
138.962495
 10
73.0
 20
138.962495
 10
163.0
 20
161.962495
 10
163.0
 20
181.462495
  0
LINE
  5
FD
102
{ACAD_REACTORS
330
BA
102
}
100
AcDbEntity
  8
0
  6
CONTINUOUS
 62
     7
100
AcDbLine
 10
21.0
 20
218.962495
 30
0.0
 11
21.0
 21
143.962495
 31
0.0
  0
ARC
  5
FE
102
{ACAD_REACTORS
330
BA
102
}
100
AcDbEntity
  8
0
  6
CONTINUOUS
 62
     7
100
AcDbCircle
 10
26.0
 20
218.962495
 30
0.0
 40
4.875
100
AcDbArc
 50
90.0
 51
180.0
  0
ARC
  5
FF
102
{ACAD_REACTORS
330
BA
102
}
100
AcDbEntity
  8
0
  6
CONTINUOUS
 62
     7
100
AcDbCircle
 10
26.0
 20
143.962495
 30
0.0
 40
5.0
100
AcDbArc
 50
180.0
 51
270.0
  0
LINE
  5
100
102
{ACAD_REACTORS
330
BA
102
}
100
AcDbEntity
  8
0
  6
CONTINUOUS
 62
     7
100
AcDbLine
 10
190.0
 20
197.662505
 30
0.0
 11
190.0
 21
218.837495
 31
0.0
  0
LINE
  5
101
102
{ACAD_REACTORS
330
BA
102
}
100
AcDbEntity
  8
0
  6
CONTINUOUS
 62
     7
100
AcDbLine
 10
185.0
 20
223.962495
 30
0.0
 11
26.250318
 21
224.037407
 31
0.0
  0
ARC
  5
102
102
{ACAD_REACTORS
330
BA
102
}
100
AcDbEntity
  8
0
  6
CONTINUOUS
 62
     7
100
AcDbCircle
 10
185.0
 20
218.962495
 30
0.0
 40
5.0
100
AcDbArc
 50
0.0
 51
90.0
  0
LWPOLYLINE
  5
103
102
{ACAD_REACTORS
330
BA
102
}
100
AcDbEntity
  8
0
  6
CONTINUOUS
 62
     7
100
AcDbPolyline
 90
        3
 70
     0
 10
190.0
 20
197.662505
 10
162.9375
 20
197.662505
 10
163.0
 20
181.174556
  0
LWPOLYLINE
  5
105
102
{ACAD_REACTORS
330
104
102
}
100
AcDbEntity
  8
0
  6
CONTINUOUS
 62
     7
100
AcDbPolyline
 90
        2
 70
     1
 10
188.5
 20
280.0
 42
-1.0
 10
188.5
 20
278.0
 42
-1.0
  0
LWPOLYLINE
  5
106
102
{ACAD_REACTORS
330
104
102
}
100
AcDbEntity
  8
0
  6
CONTINUOUS
 62
     7
100
AcDbPolyline
 90
        2
 70
     1
 10
161.5
 20
280.0
 42
-1.0
 10
161.5
 20
278.0
 42
-1.0
  0
LWPOLYLINE
  5
107
102
{ACAD_REACTORS
330
104
102
}
100
AcDbEntity
  8
0
  6
CONTINUOUS
 62
     7
100
AcDbPolyline
 90
        2
 70
     1
 10
175.0
 20
282.0
 42
-1.0
 10
175.0
 20
276.0
 42
-1.0
  0
LINE
  5
108
102
{ACAD_REACTORS
330
104
102
}
100
AcDbEntity
  8
0
  6
CONTINUOUS
 62
     7
100
AcDbLine
 10
170.3
 20
271.5
 30
0.0
 11
179.5
 21
271.5
 31
0.0
  0
ELLIPSE
  5
109
102
{ACAD_REACTORS
330
104
102
}
100
AcDbEntity
  8
0
  6
CONTINUOUS
 62
     7
100
AcDbEllipse
 10
184.8875
 20
273.95
 30
0.0
 11
-1.3875000000001434
 21
0.0000000000000104
 31
0.0
210
0.0
220
0.0
230
1.0
 40
0.756757
 41
-1.5707963267947873
 42
-0.0000000000000074
  0
ELLIPSE
  5
10A
102
{ACAD_REACTORS
330
104
102
}
100
AcDbEntity
  8
0
  6
CONTINUOUS
 62
     7
100
AcDbEllipse
 10
179.5
 20
273.95
 30
0.0
 11
-3.9999999999997318
 21
0.00000000000003
 31
0.0
210
0.0
220
0.0
230
1.0
 40
0.6125
 41
1.5707963267948446
 42
3.1415926535898655
  0
ELLIPSE
  5
10B
102
{ACAD_REACTORS
330
104
102
}
100
AcDbEntity
  8
0
  6
CONTINUOUS
 62
     7
100
AcDbEllipse
 10
184.8875
 20
284.05
 30
0.0
 11
-1.3875000000001434
 21
-0.0000000000000104
 31
0.0
210
0.0
220
0.0
230
1.0
 40
0.756757
 41
0.0000000000000074
 42
1.5707963267947873
  0
ELLIPSE
  5
10C
102
{ACAD_REACTORS
330
104
102
}
100
AcDbEntity
  8
0
  6
CONTINUOUS
 62
     7
100
AcDbEllipse
 10
179.5
 20
284.05
 30
0.0
 11
-3.9999999999997318
 21
-0.00000000000003
 31
0.0
210
0.0
220
0.0
230
1.0
 40
0.6125
 41
-3.1415926535898655
 42
-1.5707963267948446
  0
ELLIPSE
  5
10D
102
{ACAD_REACTORS
330
104
102
}
100
AcDbEntity
  8
0
  6
CONTINUOUS
 62
     7
100
AcDbEllipse
 10
165.1125
 20
273.95
 30
0.0
 11
1.3875000000001434
 21
0.0000000000000104
 31
0.0
210
0.0
220
0.0
230
1.0
 40
0.756757
 41
0.0000000000000074
 42
1.5707963267947873
  0
ELLIPSE
  5
10E
102
{ACAD_REACTORS
330
104
102
}
100
AcDbEntity
  8
0
  6
CONTINUOUS
 62
     7
100
AcDbEllipse
 10
170.5
 20
273.95
 30
0.0
 11
3.9999999999997318
 21
0.00000000000003
 31
0.0
210
0.0
220
0.0
230
1.0
 40
0.6125
 41
-3.1415926535898655
 42
-1.5707963267948446
  0
ELLIPSE
  5
10F
102
{ACAD_REACTORS
330
104
102
}
100
AcDbEntity
  8
0
  6
CONTINUOUS
 62
     7
100
AcDbEllipse
 10
165.1125
 20
284.05
 30
0.0
 11
1.3875000000001434
 21
-0.0000000000000104
 31
0.0
210
0.0
220
0.0
230
1.0
 40
0.756757
 41
-1.5707963267947873
 42
-0.0000000000000074
  0
ELLIPSE
  5
110
102
{ACAD_REACTORS
330
104
102
}
100
AcDbEntity
  8
0
  6
CONTINUOUS
 62
     7
100
AcDbEllipse
 10
170.5
 20
284.05
 30
0.0
 11
3.9999999999997318
 21
-0.00000000000003
 31
0.0
210
0.0
220
0.0
230
1.0
 40
0.6125
 41
1.5707963267948446
 42
3.1415926535898655
  0
ELLIPSE
  5
111
102
{ACAD_REACTORS
330
104
102
}
100
AcDbEntity
  8
0
  6
CONTINUOUS
 62
     7
100
AcDbEllipse
 10
125.211618
 20
277.512617
 30
0.0
 11
-0.3060896431614277
 21
1.2283878043326937
 31
0.0
210
0.0
220
0.0
230
1.0
 40
0.954865
 41
1.3471987779575583
 42
2.9179951047523862
  0
ARC
  5
112
102
{ACAD_REACTORS
330
104
102
}
100
AcDbEntity
  8
0
  6
CONTINUOUS
 62
     7
100
AcDbCircle
 10
125.25
 20
280.5
 30
0.0
 40
1.25
100
AcDbArc
 50
90.0
 51
180.0
  0
LINE
  5
113
102
{ACAD_REACTORS
330
104
102
}
100
AcDbEntity
  8
0
  6
CONTINUOUS
 62
     7
100
AcDbLine
 10
124.0
 20
277.45
 30
0.0
 11
124.0
 21
280.5
 31
0.0
  0
LWPOLYLINE
  5
114
102
{ACAD_REACTORS
330
104
102
}
100
AcDbEntity
  8
0
  6
CONTINUOUS
 62
     7
100
AcDbPolyline
 90
        4
 70
     0
 10
125.25
 20
281.75
 10
154.75
 20
281.75
 42
0.414214
 10
156.0
 20
283.0
 10
165.05
 20
283.0
  0
LINE
  5
115
102
{ACAD_REACTORS
330
104
102
}
100
AcDbEntity
  8
0
  6
CONTINUOUS
 62
     7
100
AcDbLine
 10
170.5
 20
286.5
 30
0.0
 11
179.525096
 21
286.499952
 31
0.0
  0
ARC
  5
116
102
{ACAD_REACTORS
330
104
102
}
100
AcDbEntity
  8
0
  6
CONTINUOUS
 62
     7
100
AcDbCircle
 10
192.75
 20
281.75
 30
0.0
 40
1.25
100
AcDbArc
 50
0.0
 51
90.0
  0
LWPOLYLINE
  5
117
102
{ACAD_REACTORS
330
104
102
}
100
AcDbEntity
  8
0
  6
CONTINUOUS
 62
     7
100
AcDbPolyline
 90
        4
 70
     0
 10
194.0
 20
281.75
 10
194.0
 20
276.25
 42
-0.414214
 10
192.75
 20
275.0
 10
184.8875
 20
275.0
  0
LINE
  5
118
102
{ACAD_REACTORS
330
104
102
}
100
AcDbEntity
  8
0
  6
CONTINUOUS
 62
     7
100
AcDbLine
 10
192.775505
 20
282.99974
 30
0.0
 11
184.9
 21
283.0
 31
0.0
  0
LINE
  5
119
102
{ACAD_REACTORS
330
104
102
}
100
AcDbEntity
  8
0
  6
CONTINUOUS
 62
     7
100
AcDbLine
 10
125.25
 20
276.25
 30
0.0
 11
154.75
 21
276.24975
 31
0.0
  0
LWPOLYLINE
  5
11A
102
{ACAD_REACTORS
330
104
102
}
100
AcDbEntity
  8
0
  6
CONTINUOUS
 62
     7
100
AcDbPolyline
 90
        3
 70
     0
 10
154.75
 20
276.25
 42
-0.414214
 10
156.0
 20
275.0
 10
165.125
 20
275.0
  0
LWPOLYLINE
  5
11B
100
AcDbEntity
  8
0
  6
CONTINUOUS
 62
     7
100
AcDbPolyline
 90
        4
 70
     1
 10
381.625
 20
96.459667
 10
381.625
 20
116.459667
 10
341.625
 20
116.459667
 10
341.625
 20
96.459667
  0
LWPOLYLINE
  5
11C
100
AcDbEntity
  8
0
  6
CONTINUOUS
 62
     7
100
AcDbPolyline
 90
        2
 70
     1
 10
385.625
 20
99.959667
 42
-1.0
 10
385.625
 20
102.959667
 42
-1.0
  0
LWPOLYLINE
  5
11D
100
AcDbEntity
  8
0
  6
CONTINUOUS
 62
     7
100
AcDbPolyline
 90
        2
 70
     1
 10
385.625
 20
109.959667
 42
-1.0
 10
385.625
 20
112.959667
 42
-1.0
  0
LWPOLYLINE
  5
11E
100
AcDbEntity
  8
0
  6
CONTINUOUS
 62
     7
100
AcDbPolyline
 90
        2
 70
     1
 10
337.625
 20
99.959667
 42
1.0
 10
337.625
 20
102.959667
 42
1.0
  0
LWPOLYLINE
  5
11F
100
AcDbEntity
  8
0
  6
CONTINUOUS
 62
     7
100
AcDbPolyline
 90
        2
 70
     1
 10
337.625
 20
109.959667
 42
1.0
 10
337.625
 20
112.959667
 42
1.0
  0
LWPOLYLINE
  5
120
100
AcDbEntity
  8
0
  6
CONTINUOUS
 62
     7
100
AcDbPolyline
 90
        4
 70
     1
 10
281.25
 20
41.5
 10
296.25
 20
41.5
 10
296.25
 20
47.5
 10
281.25
 20
47.5
  0
LWPOLYLINE
  5
121
100
AcDbEntity
  8
0
  6
CONTINUOUS
 62
     7
100
AcDbPolyline
 90
        4
 70
     1
 10
338.75
 20
41.5
 10
353.75
 20
41.5
 10
353.75
 20
47.5
 10
338.75
 20
47.5
  0
LWPOLYLINE
  5
122
100
AcDbEntity
  8
0
  6
CONTINUOUS
 62
     7
100
AcDbPolyline
 90
        4
 70
     1
 10
311.25
 20
41.5
 10
326.25
 20
41.5
 10
326.25
 20
47.5
 10
311.25
 20
47.5
  0
LWPOLYLINE
  5
123
100
AcDbEntity
  8
0
  6
CONTINUOUS
 62
     7
100
AcDbPolyline
 90
        7
 70
     0
 10
296.2
 20
89.5
 10
311.2
 20
89.5
 10
311.25
 20
95.5
 10
326.25
 20
95.5
 10
326.25
 20
89.5
 10
332.75
 20
89.5
 10
332.75
 20
122.25
  0
LWPOLYLINE
  5
124
100
AcDbEntity
  8
0
  6
CONTINUOUS
 62
     7
100
AcDbPolyline
 90
        6
 70
     0
 10
296.25
 20
89.5
 10
296.25
 20
95.5
 10
281.2
 20
95.5
 10
281.2
 20
89.5
 10
277.5
 20
89.5
 10
277.5
 20
47.5
  0
LWPOLYLINE
  5
125
100
AcDbEntity
  8
0
  6
CONTINUOUS
 62
     7
100
AcDbPolyline
 90
       10
 70
     0
 10
277.5
 20
47.5
 10
281.25
 20
47.5
 10
281.25
 20
41.5
 10
296.25
 20
41.5
 10
296.25
 20
47.5
 10
311.25
 20
47.5
 10
311.25
 20
41.5
 10
326.25
 20
41.5
 10
326.25
 20
47.459667
 10
338.5
 20
47.459667
  0
LWPOLYLINE
  5
126
100
AcDbEntity
  8
0
  6
CONTINUOUS
 62
     7
100
AcDbPolyline
 90
       10
 70
     0
 10
338.5
 20
47.459667
 10
338.75
 20
47.459667
 10
338.75
 20
41.5
 10
353.75
 20
41.5
 10
353.75
 20
47.5
 10
368.75
 20
47.459667
 10
368.75
 20
41.5
 10
383.75
 20
41.5
 10
383.75
 20
47.5
 10
396.875
 20
47.5
  0
LINE
  5
127
100
AcDbEntity
  8
0
  6
CONTINUOUS
 62
     7
100
AcDbLine
 10
399.0
 20
47.5
 30
0.0
 11
399.0
 21
122.5
 31
0.0
  0
LINE
  5
128
100
AcDbEntity
  8
0
  6
CONTINUOUS
 62
     7
100
AcDbLine
 10
396.75
 20
47.5
 30
0.0
 11
399.0
 21
47.5
 31
0.0
  0
LINE
  5
129
100
AcDbEntity
  8
0
  6
CONTINUOUS
 62
     7
100
AcDbLine
 10
395.5
 20
126.0
 30
0.0
 11
336.25
 21
126.0
 31
0.0
  0
ARC
  5
12A
100
AcDbEntity
  8
0
  6
CONTINUOUS
 62
     7
100
AcDbCircle
 10
395.5
 20
122.5
 30
0.0
 40
3.5
100
AcDbArc
 50
0.0
 51
90.0
  0
ELLIPSE
  5
12B
100
AcDbEntity
  8
0
  6
CONTINUOUS
 62
     7
100
AcDbEllipse
 10
336.25
 20
122.2
 30
0.0
 11
-0.0000000000000423
 21
3.80000000000007
 31
0.0
210
0.0
220
0.0
230
1.0
 40
0.91474
 41
0.0000000000000232
 42
1.5707963267948795
  0
LWPOLYLINE
  5
12C
100
AcDbEntity
  8
0
  6
CONTINUOUS
 62
     7
100
AcDbPolyline
 90
        2
 70
     1
 10
385.383333
 20
176.445333
 42
-1.0
 10
385.383333
 20
173.445333
 42
-1.0
  0
LWPOLYLINE
  5
12D
100
AcDbEntity
  8
0
  6
CONTINUOUS
 62
     7
100
AcDbPolyline
 90
        2
 70
     1
 10
385.383333
 20
195.445333
 42
1.0
 10
385.383333
 20
198.445333
 42
1.0
  0
ELLIPSE
  5
12E
100
AcDbEntity
  8
0
  6
CONTINUOUS
 62
     7
100
AcDbEllipse
 10
387.383333
 20
172.820333
 30
0.0
 11
2.9999999999999893
 21
0.0000000000000299
 31
0.0
210
0.0
220
0.0
230
1.0
 40
0.925
 41
-1.5707963267949021
 42
-0.0000000000000012
  0
ELLIPSE
  5
12F
100
AcDbEntity
  8
0
  6
CONTINUOUS
 62
     7
100
AcDbEllipse
 10
387.383306
 20
199.179667
 30
0.0
 11
2.9999999999999893
 21
0.0000000000000118
 31
0.0
210
0.0
220
0.0
230
1.0
 40
0.925
 41
0.0000000000000012
 42
1.5707963267949021
  0
LINE
  5
130
100
AcDbEntity
  8
0
  6
CONTINUOUS
 62
     7
100
AcDbLine
 10
390.383306
 20
172.808492
 30
0.0
 11
390.383306
 21
199.239667
 31
0.0
  0
ELLIPSE
  5
131
100
AcDbEntity
  8
0
  6
CONTINUOUS
 62
     7
100
AcDbEllipse
 10
383.408333
 20
198.945333
 30
0.0
 11
-0.0000000000000078
 21
2.9999999999999893
 31
0.0
210
0.0
220
0.0
230
1.0
 40
0.900167
 41
0.0000000000000012
 42
1.5707963267949021
  0
ELLIPSE
  5
132
100
AcDbEntity
  8
0
  6
CONTINUOUS
 62
     7
100
AcDbEllipse
 10
383.533333
 20
172.820333
 30
0.0
 11
-2.9999999999999893
 21
-0.0000000000000089
 31
0.0
210
0.0
220
0.0
230
1.0
 40
0.925
 41
0.0000000000000012
 42
1.5707963267949021
  0
ELLIPSE
  5
133
100
AcDbEntity
  8
0
  6
CONTINUOUS
 62
     7
100
AcDbEllipse
 10
387.691667
 20
198.954667
 30
0.0
 11
-0.000000000000099
 21
2.9999999999999889
 31
0.0
210
0.0
220
0.0
230
1.0
 40
0.927324
 41
-1.5707963267949021
 42
-0.0000000000000012
  0
ELLIPSE
  5
134
100
AcDbEntity
  8
0
  6
CONTINUOUS
 62
     7
100
AcDbEllipse
 10
387.433333
 20
172.820333
 30
0.0
 11
2.9999999999999756
 21
-0.0000000000000818
 31
0.0
210
0.0
220
0.0
230
1.0
 40
0.925
 41
-1.5707963267948499
 42
0.0000000000000509
  0
LINE
  5
135
100
AcDbEntity
  8
0
  6
CONTINUOUS
 62
     7
100
AcDbLine
 10
390.466667
 20
198.954667
 30
0.0
 11
390.429746
 21
172.684662
 31
0.0
  0
LWPOLYLINE
  5
136
100
AcDbEntity
  8
0
  6
CONTINUOUS
 62
     7
100
AcDbPolyline
 90
        4
 70
     0
 10
380.533333
 20
189.604667
 10
389.266667
 20
189.604667
 10
389.266667
 20
182.354667
 10
380.533333
 20
182.354667
  0
LINE
  5
137
100
AcDbEntity
  8
0
  6
CONTINUOUS
 62
     7
100
AcDbLine
 10
380.639142
 20
199.139333
 30
0.0
 11
380.533333
 21
189.604667
 31
0.0
  0
LINE
  5
138
100
AcDbEntity
  8
0
  6
CONTINUOUS
 62
     7
100
AcDbLine
 10
380.533333
 20
182.354667
 30
0.0
 11
380.533333
 21
172.820333
 31
0.0
  0
LINE
  5
139
100
AcDbEntity
  8
0
  6
CONTINUOUS
 62
     7
100
AcDbLine
 10
383.408333
 20
201.945333
 30
0.0
 11
387.383306
 21
201.954667
 31
0.0
  0
LINE
  5
13A
100
AcDbEntity
  8
0
  6
CONTINUOUS
 62
     7
100
AcDbLine
 10
383.533333
 20
170.045333
 30
0.0
 11
387.216667
 21
170.045333
 31
0.0
  0
LWPOLYLINE
  5
13B
100
AcDbEntity
  8
0
  6
CONTINUOUS
 62
     7
100
AcDbPolyline
 90
        2
 70
     1
 10
399.916667
 20
175.9
 42
-1.0
 10
399.916667
 20
172.9
 42
-1.0
  0
LWPOLYLINE
  5
13C
100
AcDbEntity
  8
0
  6
CONTINUOUS
 62
     7
100
AcDbPolyline
 90
        2
 70
     1
 10
399.916667
 20
194.9
 42
1.0
 10
399.916667
 20
197.9
 42
1.0
  0
ELLIPSE
  5
13D
100
AcDbEntity
  8
0
  6
CONTINUOUS
 62
     7
100
AcDbEllipse
 10
401.916667
 20
172.275
 30
0.0
 11
2.9999999999999893
 21
0.0000000000000299
 31
0.0
210
0.0
220
0.0
230
1.0
 40
0.925
 41
-1.5707963267949021
 42
-0.0000000000000012
  0
ELLIPSE
  5
13E
100
AcDbEntity
  8
0
  6
CONTINUOUS
 62
     7
100
AcDbEllipse
 10
401.916639
 20
198.634333
 30
0.0
 11
2.9999999999999893
 21
0.0000000000000118
 31
0.0
210
0.0
220
0.0
230
1.0
 40
0.925
 41
0.0000000000000012
 42
1.5707963267949021
  0
LINE
  5
13F
100
AcDbEntity
  8
0
  6
CONTINUOUS
 62
     7
100
AcDbLine
 10
404.916639
 20
172.263158
 30
0.0
 11
404.916639
 21
198.694333
 31
0.0
  0
ELLIPSE
  5
140
100
AcDbEntity
  8
0
  6
CONTINUOUS
 62
     7
100
AcDbEllipse
 10
397.941667
 20
198.4
 30
0.0
 11
-0.0000000000000078
 21
2.9999999999999893
 31
0.0
210
0.0
220
0.0
230
1.0
 40
0.900167
 41
0.0000000000000012
 42
1.5707963267949021
  0
ELLIPSE
  5
141
100
AcDbEntity
  8
0
  6
CONTINUOUS
 62
     7
100
AcDbEllipse
 10
398.066667
 20
172.275
 30
0.0
 11
-2.9999999999999893
 21
-0.0000000000000089
 31
0.0
210
0.0
220
0.0
230
1.0
 40
0.925
 41
0.0000000000000012
 42
1.5707963267949021
  0
ELLIPSE
  5
142
100
AcDbEntity
  8
0
  6
CONTINUOUS
 62
     7
100
AcDbEllipse
 10
402.225
 20
198.409333
 30
0.0
 11
-0.0000000000001231
 21
2.9999999999999889
 31
0.0
210
0.0
220
0.0
230
1.0
 40
0.926692
 41
-1.5707963267949021
 42
-0.0000000000000012
  0
ELLIPSE
  5
143
100
AcDbEntity
  8
0
  6
CONTINUOUS
 62
     7
100
AcDbEllipse
 10
401.966667
 20
172.275
 30
0.0
 11
2.9999999999999756
 21
-0.0000000000000818
 31
0.0
210
0.0
220
0.0
230
1.0
 40
0.925
 41
-1.5707963267948499
 42
0.0000000000000509
  0
LINE
  5
144
100
AcDbEntity
  8
0
  6
CONTINUOUS
 62
     7
100
AcDbLine
 10
405.0
 20
198.409333
 30
0.0
 11
404.963079
 21
172.139329
 31
0.0
  0
LWPOLYLINE
  5
145
100
AcDbEntity
  8
0
  6
CONTINUOUS
 62
     7
100
AcDbPolyline
 90
        4
 70
     0
 10
395.066667
 20
189.059333
 10
403.8
 20
189.059333
 10
403.8
 20
181.809333
 10
395.066667
 20
181.809333
  0
LINE
  5
146
100
AcDbEntity
  8
0
  6
CONTINUOUS
 62
     7
100
AcDbLine
 10
395.172475
 20
198.594
 30
0.0
 11
395.066667
 21
189.059333
 31
0.0
  0
LINE
  5
147
100
AcDbEntity
  8
0
  6
CONTINUOUS
 62
     7
100
AcDbLine
 10
395.066667
 20
181.809333
 30
0.0
 11
395.066667
 21
172.275
 31
0.0
  0
LINE
  5
148
100
AcDbEntity
  8
0
  6
CONTINUOUS
 62
     7
100
AcDbLine
 10
397.941667
 20
201.4
 30
0.0
 11
401.916639
 21
201.409333
 31
0.0
  0
LINE
  5
149
100
AcDbEntity
  8
0
  6
CONTINUOUS
 62
     7
100
AcDbLine
 10
398.066667
 20
169.5
 30
0.0
 11
401.75
 21
169.5
 31
0.0
  0
LWPOLYLINE
  5
14B
102
{ACAD_REACTORS
330
14C
102
}
100
AcDbEntity
  8
0
  6
CONTINUOUS
 62
     7
100
AcDbPolyline
 90
        2
 70
     1
 10
32.281277
 20
108.089958
 42
1.0
 10
32.281277
 20
105.089958
 42
1.0
  0
HATCH
  5
14C
102
{ACAD_REACTORS
330
14A
102
}
100
AcDbEntity
  8
0
 62
   254
100
AcDbHatch
 10
0.0
 20
0.0
 30
0.0
210
0.0
220
0.0
230
1.0
  2
SOLID
 70
     1
 71
     1
 91
        1
 92
        3
 72
     1
 73
     1
 93
        2
 10
32.281277377239491
 20
108.08995828021783
 42
0.9999999999999999
 10
32.281277377239491
 20
105.0899582802178
 42
1.0000000000000071
 97
        1
330
14B
 75
     0
 76
     1
 98
        0
  0
LWPOLYLINE
  5
14D
102
{ACAD_REACTORS
330
14E
102
}
100
AcDbEntity
  8
0
  6
CONTINUOUS
 62
     7
100
AcDbPolyline
 90
        2
 70
     1
 10
32.281277
 20
56.089958
 42
1.0
 10
32.281277
 20
53.089958
 42
1.0
  0
HATCH
  5
14E
102
{ACAD_REACTORS
330
14A
102
}
100
AcDbEntity
  8
0
 62
   254
100
AcDbHatch
 10
0.0
 20
0.0
 30
0.0
210
0.0
220
0.0
230
1.0
  2
SOLID
 70
     1
 71
     1
 91
        1
 92
        3
 72
     1
 73
     1
 93
        2
 10
32.281277377239675
 20
56.089958280217871
 42
0.9999999999999999
 10
32.281277377239675
 20
53.089958280217857
 42
1.0000000000000071
 97
        1
330
14D
 75
     0
 76
     1
 98
        0
  0
LWPOLYLINE
  5
14F
102
{ACAD_REACTORS
330
150
102
}
100
AcDbEntity
  8
0
  6
CONTINUOUS
 62
     7
100
AcDbPolyline
 90
        2
 70
     1
 10
74.181277
 20
109.089958
 42
1.0
 10
74.181277
 20
106.089958
 42
1.0
  0
HATCH
  5
150
102
{ACAD_REACTORS
330
14A
102
}
100
AcDbEntity
  8
0
 62
   254
100
AcDbHatch
 10
0.0
 20
0.0
 30
0.0
210
0.0
220
0.0
230
1.0
  2
SOLID
 70
     1
 71
     1
 91
        1
 92
        3
 72
     1
 73
     1
 93
        2
 10
74.181277377239482
 20
109.0899582802179
 42
0.9999999999999999
 10
74.181277377239482
 20
106.08995828021787
 42
1.0000000000000071
 97
        1
330
14F
 75
     0
 76
     1
 98
        0
  0
LWPOLYLINE
  5
151
102
{ACAD_REACTORS
330
152
102
}
100
AcDbEntity
  8
0
  6
CONTINUOUS
 62
     7
100
AcDbPolyline
 90
        2
 70
     1
 10
70.281277
 20
46.089958
 42
1.0
 10
70.281277
 20
43.089958
 42
1.0
  0
HATCH
  5
152
102
{ACAD_REACTORS
330
14A
102
}
100
AcDbEntity
  8
0
 62
   254
100
AcDbHatch
 10
0.0
 20
0.0
 30
0.0
210
0.0
220
0.0
230
1.0
  2
SOLID
 70
     1
 71
     1
 91
        1
 92
        3
 72
     1
 73
     1
 93
        2
 10
70.281277377239675
 20
46.089958280217978
 42
0.9999999999999999
 10
70.281277377239675
 20
43.089958280217964
 42
1.0000000000000071
 97
        1
330
151
 75
     0
 76
     1
 98
        0
  0
LWPOLYLINE
  5
153
102
{ACAD_REACTORS
330
14A
102
}
100
AcDbEntity
  8
0
  6
CONTINUOUS
 62
     7
100
AcDbPolyline
 90
        2
 70
     1
 10
159.281277
 20
67.089958
 42
1.0
 10
159.281277
 20
64.089958
 42
1.0
  0
LWPOLYLINE
  5
154
102
{ACAD_REACTORS
330
14A
102
}
100
AcDbEntity
  8
0
  6
CONTINUOUS
 62
     7
100
AcDbPolyline
 90
        2
 70
     1
 10
159.281277
 20
94.089958
 42
-1.0
 10
159.281277
 20
97.089958
 42
-1.0
  0
LINE
  5
155
102
{ACAD_REACTORS
330
14A
102
}
100
AcDbEntity
  8
0
  6
CONTINUOUS
 62
     7
100
AcDbLine
 10
22.781277
 20
118.089958
 30
0.0
 11
22.781277
 21
43.089958
 31
0.0
  0
ARC
  5
156
102
{ACAD_REACTORS
330
14A
102
}
100
AcDbEntity
  8
0
  6
CONTINUOUS
 62
     7
100
AcDbCircle
 10
27.781277
 20
118.089958
 30
0.0
 40
4.875
100
AcDbArc
 50
90.0
 51
180.0
  0
ARC
  5
157
102
{ACAD_REACTORS
330
14A
102
}
100
AcDbEntity
  8
0
  6
CONTINUOUS
 62
     7
100
AcDbCircle
 10
27.781277
 20
43.089958
 30
0.0
 40
5.0
100
AcDbArc
 50
180.0
 51
270.0
  0
LWPOLYLINE
  5
158
102
{ACAD_REACTORS
330
14A
102
}
100
AcDbEntity
  8
0
  6
CONTINUOUS
 62
     7
100
AcDbPolyline
 90
        4
 70
     1
 10
139.781277
 20
100.589958
 10
154.781277
 20
100.589958
 10
154.781277
 20
106.589958
 10
139.781277
 20
106.589958
  0
LWPOLYLINE
  5
159
102
{ACAD_REACTORS
330
14A
102
}
100
AcDbEntity
  8
0
  6
CONTINUOUS
 62
     7
100
AcDbPolyline
 90
        4
 70
     1
 10
227.281277
 20
100.589958
 10
242.281277
 20
100.589958
 10
242.281277
 20
106.589958
 10
227.281277
 20
106.589958
  0
LWPOLYLINE
  5
15A
102
{ACAD_REACTORS
330
14A
102
}
100
AcDbEntity
  8
0
  6
CONTINUOUS
 62
     7
100
AcDbPolyline
 90
        4
 70
     1
 10
197.281277
 20
100.589958
 10
212.281277
 20
100.589958
 10
212.281277
 20
106.589958
 10
197.281277
 20
106.589958
  0
LWPOLYLINE
  5
15B
102
{ACAD_REACTORS
330
14A
102
}
100
AcDbEntity
  8
0
  6
CONTINUOUS
 62
     7
100
AcDbPolyline
 90
        4
 70
     1
 10
169.781277
 20
100.589958
 10
184.781277
 20
100.589958
 10
184.781277
 20
106.589958
 10
169.781277
 20
106.589958
  0
LWPOLYLINE
  5
15C
102
{ACAD_REACTORS
330
14A
102
}
100
AcDbEntity
  8
0
  6
CONTINUOUS
 62
     7
100
AcDbPolyline
 90
        2
 70
     1
 10
169.781277
 20
90.089958
 42
-1.0
 10
169.781277
 20
93.089958
 42
-1.0
  0
LWPOLYLINE
  5
15D
102
{ACAD_REACTORS
330
14A
102
}
100
AcDbEntity
  8
0
  6
CONTINUOUS
 62
     7
100
AcDbPolyline
 90
        2
 70
     1
 10
170.031277
 20
71.089958
 42
1.0
 10
170.031277
 20
68.089958
 42
1.0
  0
LWPOLYLINE
  5
15E
102
{ACAD_REACTORS
330
14A
102
}
100
AcDbEntity
  8
0
  6
CONTINUOUS
 62
     7
100
AcDbPolyline
 90
        2
 70
     1
 10
252.281277
 20
71.089958
 42
-1.0
 10
252.281277
 20
68.089958
 42
-1.0
  0
LWPOLYLINE
  5
15F
102
{ACAD_REACTORS
330
14A
102
}
100
AcDbEntity
  8
0
  6
CONTINUOUS
 62
     7
100
AcDbPolyline
 90
        2
 70
     1
 10
252.281277
 20
90.089958
 42
1.0
 10
252.281277
 20
93.089958
 42
1.0
  0
LWPOLYLINE
  5
160
102
{ACAD_REACTORS
330
14A
102
}
100
AcDbEntity
  8
0
  6
CONTINUOUS
 62
     7
100
AcDbPolyline
 90
        2
 70
     1
 10
210.031277
 20
90.089958
 42
1.0
 10
210.031277
 20
93.089958
 42
1.0
  0
LWPOLYLINE
  5
161
102
{ACAD_REACTORS
330
14A
102
}
100
AcDbEntity
  8
0
  6
CONTINUOUS
 62
     7
100
AcDbPolyline
 90
        2
 70
     1
 10
209.781277
 20
68.089958
 42
1.0
 10
209.781277
 20
71.089958
 42
1.0
  0
LWPOLYLINE
  5
162
102
{ACAD_REACTORS
330
14A
102
}
100
AcDbEntity
  8
0
  6
CONTINUOUS
 62
     7
100
AcDbPolyline
 90
        4
 70
     0
 10
27.525053
 20
122.95822
 10
74.715225
 20
123.0
 10
109.450812
 20
114.044487
 10
253.281277
 20
114.05215
  0
LINE
  5
163
102
{ACAD_REACTORS
330
14A
102
}
100
AcDbEntity
  8
0
  6
CONTINUOUS
 62
     7
100
AcDbLine
 10
257.281277
 20
110.089958
 30
0.0
 11
257.281277
 21
51.223292
 31
0.0
  0
LWPOLYLINE
  5
164
102
{ACAD_REACTORS
330
14A
102
}
100
AcDbEntity
  8
0
  6
CONTINUOUS
 62
     7
100
AcDbPolyline
 90
        4
 70
     0
 10
253.281277
 20
47.089958
 10
109.969306
 20
47.089958
 10
74.781277
 20
38.089958
 10
27.2127
 20
38.122391
  0
LWPOLYLINE
  5
165
102
{ACAD_REACTORS
330
166
102
}
100
AcDbEntity
  8
0
  6
CONTINUOUS
 62
     7
100
AcDbPolyline
 90
        2
 70
     1
 10
32.0
 20
107.889948
 42
1.0
 10
32.0
 20
104.889948
 42
1.0
  0
HATCH
  5
166
102
{ACAD_REACTORS
330
14A
102
}
100
AcDbEntity
  8
0
 62
   254
100
AcDbHatch
 10
0.0
 20
0.0
 30
0.0
210
0.0
220
0.0
230
1.0
  2
SOLID
 70
     1
 71
     1
 91
        1
 92
        3
 72
     1
 73
     1
 93
        2
 10
32.000000000000021
 20
107.88994772602673
 42
0.9999999999999999
 10
32.000000000000021
 20
104.8899477260267
 42
1.0000000000000071
 97
        1
330
165
 75
     0
 76
     1
 98
        0
  0
LWPOLYLINE
  5
167
102
{ACAD_REACTORS
330
168
102
}
100
AcDbEntity
  8
0
  6
CONTINUOUS
 62
     7
100
AcDbPolyline
 90
        2
 70
     1
 10
32.0
 20
55.889948
 42
1.0
 10
32.0
 20
52.889948
 42
1.0
  0
HATCH
  5
168
102
{ACAD_REACTORS
330
14A
102
}
100
AcDbEntity
  8
0
 62
   254
100
AcDbHatch
 10
0.0
 20
0.0
 30
0.0
210
0.0
220
0.0
230
1.0
  2
SOLID
 70
     1
 71
     1
 91
        1
 92
        3
 72
     1
 73
     1
 93
        2
 10
32.000000000000199
 20
55.889947726026776
 42
0.9999999999999999
 10
32.000000000000199
 20
52.889947726026762
 42
1.0000000000000071
 97
        1
330
167
 75
     0
 76
     1
 98
        0
  0
LWPOLYLINE
  5
169
102
{ACAD_REACTORS
330
16A
102
}
100
AcDbEntity
  8
0
  6
CONTINUOUS
 62
     7
100
AcDbPolyline
 90
        2
 70
     1
 10
73.9
 20
108.889948
 42
1.0
 10
73.9
 20
105.889948
 42
1.0
  0
HATCH
  5
16A
102
{ACAD_REACTORS
330
14A
102
}
100
AcDbEntity
  8
0
 62
   254
100
AcDbHatch
 10
0.0
 20
0.0
 30
0.0
210
0.0
220
0.0
230
1.0
  2
SOLID
 70
     1
 71
     1
 91
        1
 92
        3
 72
     1
 73
     1
 93
        2
 10
73.900000000000006
 20
108.8899477260268
 42
0.9999999999999999
 10
73.900000000000006
 20
105.88994772602678
 42
1.0000000000000071
 97
        1
330
169
 75
     0
 76
     1
 98
        0
  0
LWPOLYLINE
  5
16B
102
{ACAD_REACTORS
330
16C
102
}
100
AcDbEntity
  8
0
  6
CONTINUOUS
 62
     7
100
AcDbPolyline
 90
        2
 70
     1
 10
70.0
 20
45.889948
 42
1.0
 10
70.0
 20
42.889948
 42
1.0
  0
HATCH
  5
16C
102
{ACAD_REACTORS
330
14A
102
}
100
AcDbEntity
  8
0
 62
   254
100
AcDbHatch
 10
0.0
 20
0.0
 30
0.0
210
0.0
220
0.0
230
1.0
  2
SOLID
 70
     1
 71
     1
 91
        1
 92
        3
 72
     1
 73
     1
 93
        2
 10
70.000000000000171
 20
45.889947726026882
 42
0.9999999999999999
 10
70.000000000000171
 20
42.889947726026868
 42
1.0000000000000071
 97
        1
330
16B
 75
     0
 76
     1
 98
        0
  0
LWPOLYLINE
  5
16D
102
{ACAD_REACTORS
330
14A
102
}
100
AcDbEntity
  8
0
  6
CONTINUOUS
 62
     7
100
AcDbPolyline
 90
        2
 70
     1
 10
159.0
 20
66.889948
 42
1.0
 10
159.0
 20
63.889948
 42
1.0
  0
LWPOLYLINE
  5
16E
102
{ACAD_REACTORS
330
14A
102
}
100
AcDbEntity
  8
0
  6
CONTINUOUS
 62
     7
100
AcDbPolyline
 90
        2
 70
     1
 10
159.0
 20
93.889948
 42
-1.0
 10
159.0
 20
96.889948
 42
-1.0
  0
LINE
  5
16F
102
{ACAD_REACTORS
330
14A
102
}
100
AcDbEntity
  8
0
  6
CONTINUOUS
 62
     7
100
AcDbLine
 10
22.5
 20
117.889948
 30
0.0
 11
22.5
 21
42.889948
 31
0.0
  0
ARC
  5
170
102
{ACAD_REACTORS
330
14A
102
}
100
AcDbEntity
  8
0
  6
CONTINUOUS
 62
     7
100
AcDbCircle
 10
27.5
 20
117.889948
 30
0.0
 40
4.875
100
AcDbArc
 50
90.0
 51
180.0
  0
ARC
  5
171
102
{ACAD_REACTORS
330
14A
102
}
100
AcDbEntity
  8
0
  6
CONTINUOUS
 62
     7
100
AcDbCircle
 10
27.5
 20
42.889948
 30
0.0
 40
5.0
100
AcDbArc
 50
180.0
 51
270.0
  0
ELLIPSE
  5
172
102
{ACAD_REACTORS
330
14A
102
}
100
AcDbEntity
  8
0
  6
CONTINUOUS
 62
     7
100
AcDbEllipse
 10
253.5
 20
109.889948
 30
0.0
 11
0.0000000000000174
 21
4.2000105541910076
 31
0.0
210
0.0
220
0.0
230
1.0
 40
0.901112
 41
-1.5707963267948912
 42
0.0000000000000018
  0
ELLIPSE
  5
173
102
{ACAD_REACTORS
330
14A
102
}
100
AcDbEntity
  8
0
  6
CONTINUOUS
 62
     7
100
AcDbEllipse
 10
253.5
 20
51.389948
 30
0.0
 11
-0.0000000000000422
 21
4.2999894458088335
 31
0.0
210
0.0
220
0.0
230
1.0
 40
0.86817
 41
3.1415926535897878
 42
4.7123889803847163
  0
LWPOLYLINE
  5
174
102
{ACAD_REACTORS
330
14A
102
}
100
AcDbEntity
  8
0
  6
CONTINUOUS
 62
     7
100
AcDbPolyline
 90
        2
 70
     1
 10
48.0
 20
106.389948
 42
-1.0
 10
70.0
 20
106.389948
 42
-1.0
  0
LWPOLYLINE
  5
175
102
{ACAD_REACTORS
330
14A
102
}
100
AcDbEntity
  8
0
  6
CONTINUOUS
 62
     7
100
AcDbPolyline
 90
        2
 70
     1
 10
38.0
 20
59.389948
 42
-1.0
 10
60.0
 20
59.389948
 42
-1.0
  0
MTEXT
  5
176
100
AcDbEntity
  8
0
100
AcDbMText
 10
103.5
 20
67.5
 30
0.0
 40
4.622974
 41
54.0
 71
     5
 72
     5
  1
\C7;\fArial|b1|i0|;\H4.6229736328125;6mm Acetal
  0
MTEXT
  5
177
100
AcDbEntity
  8
0
100
AcDbMText
 10
334.5
 20
67.5
 30
0.0
 40
4.622974
 41
54.0
 71
     5
 72
     5
  1
\C7;\fArial|b1|i0|;\H4.6229736328125;6mm Acetal
  0
MTEXT
  5
178
100
AcDbEntity
  8
0
100
AcDbMText
 10
58.5
 20
279.0
 30
0.0
 40
4.622974
 41
54.0
 71
     5
 72
     5
  1
\C7;\fArial|b1|i0|;\H4.6229736328125;6mm Acetal
  0
MTEXT
  5
179
100
AcDbEntity
  8
0
100
AcDbMText
 10
180.0
 20
261.0
 30
0.0
 40
4.622974
 41
54.0
 71
     5
 72
     5
  1
\C7;\fArial|b1|i0|;\H4.6229736328125;6mm Acetal
  0
LINE
  5
17A
100
AcDbEntity
  8
0
  6
CONTINUOUS
 62
     7
100
AcDbLine
 10
192.0
 20
267.0
 30
0.0
 11
186.0
 21
275.0
 31
0.0
  0
MTEXT
  5
17B
100
AcDbEntity
  8
0
100
AcDbMText
 10
109.5
 20
213.0
 30
0.0
 40
4.622974
 41
54.0
 71
     5
 72
     5
  1
\C7;\fArial|b1|i0|;\H4.6229736328125;3mm Acrylic
  0
MTEXT
  5
17C
100
AcDbEntity
  8
0
100
AcDbMText
 10
273.0
 20
231.0
 30
0.0
 40
4.622974
 41
54.0
 71
     5
 72
     5
  1
\C7;\fArial|b1|i0|;\H4.6229736328125;6mm Acrylic
  0
LWPOLYLINE
  5
17D
100
AcDbEntity
  8
0
  6
CONTINUOUS
 62
     7
100
AcDbPolyline
 90
        3
 70
     0
 10
202.5
 20
294.0
 10
202.5
 20
154.5
 10
415.5
 20
154.5
  0
ENDSEC
  0
SECTION
  2
OBJECTS
  0
DICTIONARY
  5
C
100
AcDbDictionary
  3
ACAD_GROUP
350
D
  3
ACAD_MLINESTYLE
350
1B
  0
DICTIONARY
  5
D
102
{ACAD_REACTORS
330
C
102
}
100
AcDbDictionary
  3
VISIOGROUP_0
350
48
  3
VISIOGROUP_1
350
66
  3
VISIOGROUP_2
350
71
  3
VISIOGROUP_3
350
7C
  3
VISIOGROUP_4
350
BA
  3
VISIOGROUP_5
350
104
  3
VISIOGROUP_6
350
14A
  0
DICTIONARY
  5
1B
102
{ACAD_REACTORS
330
C
102
}
100
AcDbDictionary
  3
STANDARD
350
1C
  0
MLINESTYLE
  5
1C
102
{ACAD_REACTORS
330
1B
102
}
100
AcDbMlineStyle
  2
STANDARD
 70
     0
  3

 62
   256
 51
90.0
 52
90.0
 71
     2
 49
0.5
 62
   256
  6
BYLAYER
 49
-0.5
 62
   256
  6
BYLAYER
  0
GROUP
  5
48
102
{ACAD_REACTORS
330
D
102
}
100
AcDbGroup
300
Group created by Visio.
 70
     0
 71
     1
340
49
340
4A
340
4B
340
4C
340
4D
  0
GROUP
  5
66
102
{ACAD_REACTORS
330
D
102
}
100
AcDbGroup
300
Group created by Visio.
 70
     0
 71
     1
340
67
340
68
340
69
340
6A
340
6B
340
6C
340
6D
340
6E
340
6F
340
70
  0
GROUP
  5
71
102
{ACAD_REACTORS
330
D
102
}
100
AcDbGroup
300
Group created by Visio.
 70
     0
 71
     1
340
72
340
73
340
74
340
75
340
76
340
77
340
78
340
79
340
7A
340
7B
  0
GROUP
  5
7C
102
{ACAD_REACTORS
330
D
102
}
100
AcDbGroup
300
Group created by Visio.
 70
     0
 71
     1
340
7D
340
7E
340
7F
340
80
340
81
340
82
340
83
340
84
340
85
340
86
  0
GROUP
  5
BA
102
{ACAD_REACTORS
330
D
102
}
100
AcDbGroup
300
Group created by Visio.
 70
     0
 71
     1
340
BB
340
BC
340
BD
340
BE
340
BF
340
C0
340
C1
340
C2
340
C3
340
C4
340
C5
340
C6
340
C7
340
C8
340
C9
340
CA
340
CB
340
CC
340
CD
340
CE
340
CF
340
D0
340
D1
340
D2
340
D3
340
D4
340
D5
340
D6
340
D7
340
D8
340
D9
340
DA
340
DB
340
DC
340
DD
340
DE
340
DF
340
E0
340
E1
340
E2
340
E3
340
E4
340
E5
340
E6
340
E7
340
E8
340
E9
340
EA
340
EB
340
EC
340
ED
340
EE
340
EF
340
F0
340
F1
340
F2
340
F3
340
F4
340
F5
340
F6
340
F7
340
F8
340
F9
340
FA
340
FB
340
FC
340
FD
340
FE
340
FF
340
100
340
101
340
102
340
103
  0
GROUP
  5
104
102
{ACAD_REACTORS
330
D
102
}
100
AcDbGroup
300
Group created by Visio.
 70
     0
 71
     1
340
105
340
106
340
107
340
108
340
109
340
10A
340
10B
340
10C
340
10D
340
10E
340
10F
340
110
340
111
340
112
340
113
340
114
340
115
340
116
340
117
340
118
340
119
340
11A
  0
GROUP
  5
14A
102
{ACAD_REACTORS
330
D
102
}
100
AcDbGroup
300
Group created by Visio.
 70
     0
 71
     1
340
14B
340
14C
340
14D
340
14E
340
14F
340
150
340
151
340
152
340
153
340
154
340
155
340
156
340
157
340
158
340
159
340
15A
340
15B
340
15C
340
15D
340
15E
340
15F
340
160
340
161
340
162
340
163
340
164
340
165
340
166
340
167
340
168
340
169
340
16A
340
16B
340
16C
340
16D
340
16E
340
16F
340
170
340
171
340
172
340
173
340
174
340
175
  0
ENDSEC
  0
EOF
